<svg width="307" height="307" viewBox="0 0 307 307" fill="none" xmlns="http://www.w3.org/2000/svg">
<g filter="url(#filter0_ii_20_67)">
<g opacity="0.2">
<path d="M245.617 139.796C242.007 137.56 240.02 134.945 238.213 132.853C231.366 134.445 222.472 132.569 219.995 127.986C224.021 128.902 228.671 127.914 232.705 128.564C234.667 128.879 237.692 129.603 239.298 130.873C240.72 132.006 241.032 133.528 241.975 134.923C242.44 135.623 243.27 136.081 243.748 136.776C244.421 137.763 244.954 138.834 245.617 139.796Z" fill="#7D8DFF"/>
<path d="M278.212 147.086C272.403 145.162 269.97 141.499 268.868 140.913C267.466 140.164 261.007 143.737 254.386 143.074C258.364 142.454 262.491 140.152 265.931 138.879C267.696 138.222 269.459 138.2 271.229 138.836C273.077 139.492 273.754 140.362 274.868 141.922C276.07 143.613 277.181 145.29 278.212 147.086Z" fill="#7D8DFF"/>
</g>
<path d="M153.462 306.048C237.787 306.048 306.146 237.689 306.146 153.364C306.146 69.0385 237.787 0.67955 153.462 0.67955C69.1366 0.67955 0.777588 69.0385 0.777588 153.364C0.777588 237.689 69.1366 306.048 153.462 306.048Z" fill="#3DD4F2"/>
<path d="M211.803 57.5355C208.85 44.2275 178.936 50.9675 172.623 57.8795C166.86 64.1885 168.963 71.9715 168.977 79.7265C168.993 88.8025 165.47 99.0885 160.776 106.852C154.818 116.706 134.195 120.037 138.898 135.922C139.92 139.372 145.064 145.008 148.11 147.29C151.083 149.518 154.263 149.742 157.597 151.036C161.581 152.582 163.298 155.303 166.344 158.123C169.228 160.793 171.899 162.55 173.986 165.959C176.527 170.109 177.958 174.737 180.823 178.723C184.305 183.567 193.313 191.566 199.979 190.592C215.314 188.352 204.218 169.441 202.794 161.312C200.321 147.205 214.725 135.536 218.281 122.664C219.381 118.682 219.821 115.084 219.445 110.83C219.194 107.992 217.548 104.081 218.159 101.261C218.694 98.7916 221.251 96.4406 222.178 93.9806C223.78 89.7326 224.354 85.0376 224.557 80.5446C224.847 74.1366 220.161 55.2086 209.979 59.3576" fill="#61DAF2"/>
<path d="M226.924 183.994C236.679 191.379 248.16 188.869 258.292 193.293C263.255 195.46 265.365 199.951 264.791 205.327C264.535 207.726 261.992 210.469 261.741 212.809C261.428 215.725 262.478 218.467 262.906 221.327C264.627 232.838 255.533 243.056 250.109 253.161C242.106 268.07 226.951 271.981 213.556 280.179C204.602 285.659 182.842 303.673 176.94 287.992C171 272.208 193.332 261.139 201.59 249.145C210.471 236.245 204.132 224.382 208.42 210.809C210.307 204.841 223.091 192.694 229.591 192.661" fill="#61DAF2"/>
<path d="M18.9237 114.661C19.0697 111.112 22.0867 100.662 27.4577 102.762C31.9887 104.533 31.5987 117.539 31.5907 121.177C31.5627 133.217 34.6997 141.688 43.7757 149.145C52.0917 155.977 63.6207 166.289 64.7737 177.994C66.6237 196.77 42.7327 200.311 29.0907 197.325C5.35867 192.131 4.24767 168.13 7.07267 148.658C8.27167 140.394 11.0467 133.086 14.2577 125.329C16.6897 119.453 17.4837 110.928 20.9247 105.993" fill="#61DAF2"/>
<path d="M98.9237 184.661C90.1357 176.089 76.8477 190.462 71.5877 196.497C67.2367 201.489 62.4147 205.658 55.6247 205.994C48.2137 206.361 45.4667 204.362 38.2567 207.809C33.2397 210.208 26.1657 211.832 26.9077 218.661C27.3587 222.812 33.7877 229.374 36.9257 231.848C42.8367 236.508 46.4767 238.525 50.2567 245.327C53.7657 251.641 56.0877 258.288 61.5897 263.342C67.1877 268.484 72.7787 268.557 78.9207 271.477C85.2477 274.486 85.9177 281.44 90.9257 285.991C95.3317 289.995 103.882 293.351 109.625 290.176C115.549 286.901 114.995 279.848 114.924 273.977C114.836 266.68 112.83 262.274 109.756 255.845C107.224 250.55 107.44 245.754 105.456 240.66C101.138 229.578 87.5817 223.572 93.0887 209.993C94.9647 205.369 99.1187 201.875 101.107 197.326C103.269 192.379 102.403 182.401 94.9237 182.659" fill="#61DAF2"/>
<path d="M237.568 31.2956C235.578 29.3706 230.46 29.5116 228.335 32.0006C225.286 35.5706 228.926 37.7436 229.094 40.9496C229.303 44.9486 219.152 54.0626 229.527 53.1706C232.831 52.8866 234.293 49.9626 236.995 48.5396C239.06 47.4526 244.306 47.6936 245.636 46.2656C249.911 41.6796 241.986 32.0986 236.417 33.0196" fill="#61DAF2"/>
<mask id="mask0_20_67" style="mask-type:luminance" maskUnits="userSpaceOnUse" x="0" y="0" width="307" height="307">
<path d="M153.462 306.048C237.787 306.048 306.146 237.689 306.146 153.364C306.146 69.0385 237.787 0.67955 153.462 0.67955C69.1366 0.67955 0.777588 69.0385 0.777588 153.364C0.777588 237.689 69.1366 306.048 153.462 306.048Z" fill="white"/>
</mask>
<g mask="url(#mask0_20_67)">
<path d="M106.723 141.809C106.477 140.787 111.248 140.058 112.78 139.984C114.313 139.911 116.356 140.276 116.94 140.896C117.524 141.516 118.4 142.83 119.348 143.414C120.297 143.998 119.786 144.436 121.246 144.728C122.706 145.02 123.216 144.509 123.07 145.458C122.924 146.407 121.246 146.991 120.516 146.918C119.786 146.845 118.181 146.48 117.451 145.896C116.721 145.312 113.729 143.196 112.78 143.05C111.832 142.904 106.847 142.321 106.723 141.809Z" fill="#5ED15A"/>
</g>
<mask id="mask1_20_67" style="mask-type:luminance" maskUnits="userSpaceOnUse" x="0" y="0" width="307" height="307">
<path d="M153.462 306.048C237.787 306.048 306.146 237.689 306.146 153.364C306.146 69.0385 237.787 0.67955 153.462 0.67955C69.1366 0.67955 0.777588 69.0385 0.777588 153.364C0.777588 237.689 69.1366 306.048 153.462 306.048Z" fill="white"/>
</mask>
<g mask="url(#mask1_20_67)">
<path d="M136.427 149.91C136.472 150.424 134.748 150.64 133.8 150.786C132.851 150.932 129.567 151.37 129.129 151.735C128.691 152.1 127.012 153.049 126.356 152.83C125.699 152.611 124.75 151.695 124.677 151.387C124.604 151.079 124.896 149.181 125.261 148.597C125.626 148.013 126.137 147.356 126.94 147.429C127.743 147.502 128.691 147.856 129.275 147.423C129.859 146.991 130.443 146.638 131.026 146.924C131.61 147.21 136.281 148.231 136.427 149.91Z" fill="#5ED15A"/>
</g>
<mask id="mask2_20_67" style="mask-type:luminance" maskUnits="userSpaceOnUse" x="0" y="0" width="307" height="307">
<path d="M153.462 306.048C237.787 306.048 306.146 237.689 306.146 153.364C306.146 69.0385 237.787 0.67955 153.462 0.67955C69.1366 0.67955 0.777588 69.0385 0.777588 153.364C0.777588 237.689 69.1366 306.048 153.462 306.048Z" fill="white"/>
</mask>
<g mask="url(#mask2_20_67)">
<path d="M60.4635 25.5976C65.1845 26.2266 70.3065 27.5026 73.1635 28.7726C76.0205 30.0426 81.7365 27.8206 87.1335 28.7726C92.5315 29.7246 94.4365 28.4546 96.9765 30.9956C99.5165 33.5356 102.692 34.8055 103.962 34.1705C105.232 33.5355 106.502 31.3126 107.455 32.5826C108.408 33.8526 107.772 40.8375 103.01 43.0605C98.2466 45.2835 94.4365 45.6006 94.4365 49.4106C94.4365 53.2206 96.9765 53.5385 99.5165 54.8085C102.057 56.0785 103.645 58.9365 106.502 59.5715C109.359 60.2065 112.852 58.6195 114.757 63.3815C116.662 68.1445 120.472 69.4145 119.837 66.5565C119.202 63.6995 118.249 61.7946 122.06 58.9366C125.87 56.0796 124.283 53.8566 122.06 50.9986C119.837 48.1416 119.837 45.2836 122.378 44.0136C124.918 42.7436 132.221 41.7906 133.173 44.0136C134.125 46.2366 136.348 50.6806 139.523 51.3156C142.698 51.9506 142.786 46.0526 144.92 46.8326C147.207 47.6686 146.44 52.8496 147.207 54.5766C147.975 56.3036 153.923 56.8796 155.266 59.5656C156.609 62.2516 156.225 66.0156 156.609 68.0676C156.993 70.1196 157.185 71.6546 156.609 72.9976C156.033 74.3406 156.417 76.2596 158.912 77.0266C161.406 77.7946 161.215 79.1376 158.912 79.9046C156.609 80.6726 152.772 80.0965 152.58 77.7935C152.388 75.4905 150.853 73.5726 148.742 73.5726C146.631 73.5726 139.34 73.7646 138.572 75.1076C137.804 76.4506 137.996 77.6026 140.491 77.6026C142.986 77.6026 143.561 79.9706 142.794 80.2256C142.026 80.4806 140.875 82.0156 141.835 82.3996C142.794 82.7836 150.384 79.7135 151.674 80.8645C152.964 82.0155 151.237 84.8945 148.551 86.0455C145.865 87.1965 141.259 91.8026 139.533 90.6506C137.806 89.4996 143.946 85.8535 141.644 86.0455C139.341 86.2375 132.434 89.0986 132.05 90.8336C131.666 92.5696 135.12 95.0636 133.393 96.4066C131.666 97.7496 126.869 96.0225 126.293 98.3255C125.717 100.629 127.252 105.426 123.223 109.455C119.194 113.484 112.861 116.363 112.861 119.625C112.861 122.887 114.78 127.3 114.78 129.027C114.78 130.754 114.012 134.016 112.861 134.208C111.71 134.4 111.326 133.057 109.791 132.673C108.256 132.289 108.064 129.603 107.105 127.492C106.146 125.381 107.297 121.927 103.459 121.736C99.6205 121.544 97.5105 121.544 96.9345 122.695C96.3585 123.846 98.0855 125.573 95.3995 125.573C92.7135 125.573 91.1785 124.23 89.6425 125.765C88.1075 127.3 84.2695 129.027 83.5025 131.138C82.7355 133.249 81.3915 137.662 83.3105 141.691C85.2295 145.721 83.6945 144.953 84.2695 146.296C84.8455 147.639 89.0665 149.75 90.7935 150.325C92.5205 150.901 95.5905 148.406 95.0145 146.104C94.4385 143.801 98.0846 142.458 99.4276 142.458C100.771 142.458 101.731 144.569 101.539 145.72C101.347 146.871 98.6606 151.86 98.4686 153.971C98.2766 156.082 100.58 156.657 104.226 157.809C107.872 158.96 107.68 159.344 107.68 162.414C107.68 165.484 106.781 171.049 110.588 170.857C114.395 170.665 118.617 172.392 120.152 172.2C121.687 172.008 124.757 166.06 126.484 166.443C128.211 166.827 126.868 170.664 128.978 170.856C131.088 171.048 135.31 167.978 139.915 169.897C144.52 171.816 149.125 172.2 150.469 174.118C151.812 176.037 152.963 179.683 155.074 180.642C157.185 181.601 162.941 180.834 165.436 182.753C167.93 184.672 168.506 191.388 173.111 193.306C177.716 195.225 183.473 196.568 187.118 197.911C190.764 199.254 197.863 200.597 197.288 205.97C196.712 211.343 195.753 214.221 193.259 217.099C190.764 219.977 190.764 221.129 193.259 227.844C195.753 234.56 193.835 237.438 192.108 239.357C190.381 241.276 185.776 244.922 181.555 245.881C177.334 246.84 175.607 248.184 174.455 249.719C173.304 251.254 172.152 255.859 173.304 258.354C174.455 260.849 174.647 262.384 173.496 263.727C172.345 265.07 169.658 266.989 166.972 267.373C164.286 267.757 161.791 269.676 161.407 271.786C161.023 273.897 160.256 278.118 156.226 280.037C152.197 281.956 149.51 281.572 148.551 283.107C147.592 284.642 146.632 288.864 147.975 290.782C149.318 292.701 149.702 295.387 147.975 296.73C146.248 298.073 144.521 299.224 144.521 300.951C144.521 302.678 144.137 304.597 142.794 304.789C141.451 304.981 136.27 310.929 133.967 310.546C131.664 310.162 131.089 306.9 131.856 305.365C132.623 303.83 133.391 302.103 132.815 299.8C132.239 297.497 131.856 295.962 131.472 294.043C131.088 292.124 130.704 291.74 130.896 288.67C131.088 285.6 131.855 282.338 132.431 279.076C133.007 275.814 133.199 269.674 133.007 265.069C132.815 260.464 133.583 260.272 133.774 256.051C133.965 251.83 134.158 246.073 134.158 242.811C134.158 239.549 135.501 236.479 132.815 234.752C130.129 233.025 121.686 232.641 116.121 225.925C110.556 219.209 106.719 219.017 107.486 211.534C108.254 204.051 110.748 203.091 112.091 200.213C113.434 197.335 114.969 192.154 114.969 189.084C114.969 186.014 116.696 184.479 116.504 182.944C116.312 181.409 114.201 176.612 112.474 174.693C110.747 172.774 107.869 171.623 105.374 171.239C102.879 170.855 100.193 167.401 97.6985 163.756C95.2035 160.11 92.9015 160.11 90.4065 160.11C87.9115 160.11 85.9935 157.04 83.1145 156.272C80.2365 155.504 76.5905 154.353 73.3285 152.818C70.0665 151.283 68.5315 150.132 66.2285 145.91C63.9255 141.688 62.5825 132.862 61.4315 130.751C60.2805 128.64 58.1695 120.389 56.2505 119.814C54.3315 119.238 52.2215 117.32 51.8375 119.046C51.4535 120.773 52.0295 125.378 53.5645 127.105C55.0995 128.832 56.2505 131.326 56.8265 132.669C57.4025 134.012 57.2105 136.123 55.8675 134.78C54.5245 133.437 51.6465 128.448 50.4945 127.68C49.3435 126.913 46.8485 124.61 45.5055 120.197C44.1625 115.784 44.1625 111.179 43.2025 109.835C42.2435 108.492 41.6675 106.573 39.3645 104.27C37.0615 101.967 36.8695 98.5126 37.8295 94.8676C38.7895 91.2216 38.2775 83.5466 37.2855 82.3956C36.2945 81.2446 33.4345 78.4296 31.1135 77.0226C29.8865 76.2796 30.4735 74.4126 31.1135 72.7146C31.7535 71.0176 32.7725 65.9255 31.9235 61.6815C31.0745 57.4385 32.2635 52.3466 29.3775 51.6676C26.4925 50.9886 24.1155 50.8186 22.4185 49.4606C20.7215 48.1026 17.6665 45.8966 14.6105 46.2356C11.5555 46.5746 3.40854 45.8966 2.05054 47.4236C0.692541 48.9516 -2.87146 49.6295 -3.72046 51.1575C-4.56946 52.6845 -6.77545 54.0426 -9.15145 55.0616C-11.5275 56.0796 -15.7705 57.9465 -17.1285 56.5885C-18.4865 55.2305 -18.8255 52.1756 -20.3535 51.3266C-21.8815 50.4776 -24.7665 51.1565 -25.7845 48.9505C-26.8025 46.7445 -28.8395 47.4226 -29.8585 46.4046C-30.8765 45.3866 -28.6705 43.6886 -26.4635 41.4826C-24.2575 39.2766 -15.7705 36.2206 -17.6375 34.1846C-19.5045 32.1476 -21.2015 34.5236 -22.7295 34.0146C-24.2575 33.5056 -26.8035 33.1656 -25.9545 31.6386C-25.1055 30.1106 -21.7115 28.5836 -20.1835 28.5836C-18.6555 28.5836 -13.9035 28.9226 -11.0185 27.5656C-8.13346 26.2076 -4.73846 24.1706 -2.53146 24.5106C-0.32546 24.8496 1.37254 27.0566 3.40954 25.3596C5.44654 23.6626 7.65254 20.7766 11.0475 21.1166C14.4425 21.4556 24.1165 21.1166 27.3415 22.4746C30.5665 23.8326 33.1125 25.6996 36.8465 24.5116C40.5805 23.3236 56.3335 25.0476 60.4635 25.5976Z" fill="#5ED15A"/>
<path d="M297.214 40.1056C289.355 30.8596 278.491 28.0865 275.024 28.3175C271.557 28.5485 264.16 30.6285 261.849 32.9405C259.538 35.2515 253.99 37.5636 253.297 40.1056C252.604 42.6486 251.448 43.3415 250.061 44.9595C248.674 46.5775 246.594 47.9645 248.905 49.8135C251.216 51.6625 254.915 51.8935 255.377 53.9745C255.839 56.0545 256.07 57.6725 259.075 57.9035C262.08 58.1345 261.849 61.6015 264.854 59.9835C267.859 58.3655 270.401 56.5166 269.246 54.2046C268.09 51.8936 267.397 48.1945 266.703 46.1145C266.01 44.0345 264.392 43.5725 266.241 42.1855C268.09 40.7985 268.784 39.4116 270.864 39.4116C272.944 39.4116 273.407 37.5625 274.331 40.1045C275.256 42.6475 273.407 44.2655 273.869 46.5765C274.331 48.8875 273.638 51.4306 275.949 51.4306C278.261 51.4306 280.11 50.2745 281.034 51.1995C281.959 52.1235 283.808 52.5866 282.19 53.9736C280.572 55.3606 278.492 55.3605 277.798 56.5155C277.105 57.6715 276.873 60.4116 276.873 60.4116C276.873 60.4116 276.068 63.4495 272.541 63.9125C269.014 64.3745 262.311 66.9175 260.924 66.2235C259.537 65.5305 260.924 62.2945 259.306 61.6005C257.688 60.9075 255.145 62.2935 255.608 63.2185C256.07 64.1425 256.533 65.0746 255.608 66.3426C254.683 67.6106 248.681 67.6106 247.868 68.3036C247.055 68.9966 245.437 70.8466 244.744 72.2326C244.051 73.6196 242.201 76.6245 241.277 76.6245C240.352 76.6245 241.739 78.4736 242.664 80.5536C243.589 82.6336 246.594 88.4125 243.82 89.3375C241.046 90.2615 236.886 88.8755 234.343 90.4935C231.8 92.1115 231.569 98.5836 233.418 101.358C235.267 104.132 237.116 105.519 239.89 105.287C242.664 105.056 245.206 105.287 246.593 102.744C247.98 100.201 248.673 98.8145 249.367 95.8095C250.06 92.8045 247.749 90.4936 250.291 90.2626C252.834 90.0316 253.296 92.1115 254.914 90.0315C256.532 87.9515 257.919 85.8705 260.924 85.6395C263.929 85.4085 260.693 89.7995 262.773 90.7245C264.853 91.6495 267.858 92.3425 269.014 93.9605C270.17 95.5785 272.019 98.5835 270.863 100.202C269.707 101.82 267.858 105.337 269.245 105.312C270.632 105.287 272.481 105.75 273.406 102.976C274.33 100.202 275.948 97.4275 274.793 95.8105C273.637 94.1925 273.406 90.9565 272.019 90.4945C270.632 90.0325 269.939 88.6456 269.014 87.2586C268.089 85.8716 264.16 84.4845 267.627 84.9475C271.094 85.4095 276.41 87.2585 276.873 89.1085C277.335 90.9575 277.335 92.1136 278.26 94.8876C279.184 97.6616 277.798 99.7415 280.802 100.435C283.807 101.128 284.269 101.36 284.731 102.978C285.193 104.596 284.269 106.907 285.193 104.596C286.118 102.284 285.886 101.36 285.424 99.2795C284.962 97.1995 283.112 94.4255 285.424 93.9635C287.735 93.5015 288.429 93.0385 289.353 93.9635C290.278 94.8885 289.584 95.8125 290.509 97.8925C291.434 99.9725 291.434 100.436 293.976 101.129C296.519 101.822 295.825 103.672 298.599 103.903C301.373 104.134 304.609 102.156 304.609 105.572C304.609 108.988 303.684 109.681 304.609 111.993C305.534 114.304 304.609 116.385 302.298 115.691C299.987 114.998 297.213 114.073 294.208 114.304C291.203 114.535 290.047 111.068 287.505 111.762C284.962 112.455 281.726 113.189 281.495 115.827C281.264 118.465 283.113 120.083 281.726 120.083C280.339 120.083 275.485 118.003 273.174 116.154C270.863 114.305 267.858 114.536 266.24 113.38C264.622 112.224 261.617 109.913 262.079 108.988C262.541 108.063 265.777 106.445 264.159 105.058C262.541 103.671 259.305 103.671 256.531 104.596C253.757 105.52 252.37 106.676 249.366 108.525C246.361 110.374 243.356 112.223 242.432 111.53C241.507 110.837 242.201 109.45 240.352 109.912C238.503 110.374 237.116 111.299 236.423 112.223C235.73 113.147 232.147 116.846 232.205 118.926C232.262 121.006 231.107 126.554 228.795 131.87C226.484 137.186 223.941 139.266 222.785 141.809C221.629 144.351 218.856 150.361 220.242 154.522C221.629 158.683 222.553 161.687 223.709 164.23C224.865 166.773 226.483 170.24 228.794 170.702C231.105 171.164 236.191 175.325 236.653 176.249C237.115 177.174 238.964 178.56 242.894 178.792C246.823 179.023 248.441 179.023 251.446 177.636C254.451 176.249 259.742 173.707 262.413 174.169C265.084 174.631 268.551 174.398 271.093 178.906C273.636 183.414 271.786 185.957 274.098 188.731C276.409 191.505 277.796 193.816 276.641 195.434C275.485 197.052 272.48 198.901 274.792 200.288C277.103 201.675 279.877 202.368 281.033 204.449C282.189 206.529 285.194 212.539 284.731 214.85C284.269 217.161 282.188 222.247 283.113 225.945C284.038 229.643 282.42 231.724 284.038 234.266C285.656 236.809 288.43 240.738 290.048 242.587C291.666 244.436 295.595 248.366 294.902 250.677C294.209 252.989 294.902 257.149 296.982 259.692C299.062 262.235 303.007 265.702 304.964 266.395C306.921 267.088 306.459 268.938 308.077 268.938C309.695 268.938 311.082 266.395 313.856 265.24C316.63 264.084 321.021 262.929 322.639 259.23C324.257 255.532 324.488 253.683 324.488 251.371C324.488 249.06 321.483 246.286 324.488 243.974C327.493 241.663 329.342 239.12 330.267 237.271C331.192 235.422 332.347 230.799 332.347 227.101C332.347 223.403 331.191 221.322 333.503 219.473C335.814 217.624 338.357 216.699 337.201 214.85C336.045 213.001 335.121 211.845 333.271 205.373C331.422 198.901 329.342 197.514 330.035 195.434C330.729 193.354 330.035 190.811 331.191 187.344C332.347 183.877 332.115 182.721 334.889 180.872C337.663 179.023 342.618 174.862 342.618 171.164C342.618 167.466 343.876 168.39 342.618 163.767C341.36 159.144 341.823 158.682 339.743 156.833C337.663 154.984 337.432 154.059 335.814 156.14C334.196 158.22 333.04 163.768 330.729 161.919C328.418 160.07 325.182 154.291 323.564 152.442C321.946 150.593 324.026 150.131 320.79 147.588C317.554 145.046 316.86 144.583 314.318 140.654C311.775 136.724 310.62 135.106 310.62 132.795C310.62 130.484 308.309 127.941 309.695 126.092C311.082 124.243 313.393 126.092 314.549 128.635C315.705 131.178 320.559 135.338 321.483 138.112C322.408 140.886 326.799 148.513 328.186 149.669C329.573 150.825 329.342 154.985 331.653 154.292C333.964 153.599 335.351 148.051 337.2 147.127C339.049 146.203 343.21 148.976 345.29 145.509C347.37 142.042 350.144 138.806 348.757 136.263C347.37 133.72 348.064 130.253 346.677 128.866C345.29 127.479 340.667 130.715 337.662 129.097C334.657 127.479 328.879 123.318 329.11 119.851C329.341 116.384 337.431 103.902 335.351 98.8166C333.271 93.7316 319.171 65.7635 313.624 63.9145C308.077 62.0655 302.067 57.2116 302.76 51.4326C303.455 45.6526 297.214 40.1056 297.214 40.1056Z" fill="#5ED15A"/>
<path d="M210.283 -3.82045C205.504 -9.05445 191.622 -12.9234 184.34 -12.6954C177.058 -12.4674 166.817 -11.5574 162.949 -11.1024C159.08 -10.6474 153.597 -9.50945 151.674 -9.73645C149.75 -9.96445 144.061 -9.50945 141.558 -6.77845C139.055 -4.04745 133.821 -3.13745 134.503 0.276551C135.186 3.69055 137.461 3.91756 140.647 4.60056C143.833 5.28356 147.474 3.00756 148.384 4.60056C149.294 6.19356 148.384 10.0626 149.294 11.1996C150.204 12.3376 153.845 13.7026 154.983 15.5236C156.121 17.3446 159.307 17.1166 160.217 20.0746C161.127 23.0326 161.355 34.6386 162.493 36.6866C163.631 38.7346 162.721 41.0105 163.858 42.6035C164.996 44.1965 172.278 48.9756 174.326 48.9756C176.374 48.9756 174.326 43.2866 176.602 40.3276C178.878 37.3696 185.477 35.5485 190.256 34.1835C195.035 32.8185 197.766 30.6176 201.634 28.3046C205.503 25.9916 210.964 24.6156 210.282 21.0936C209.599 17.5716 208.462 17.5716 209.144 15.9786C209.827 14.3856 210.964 14.8406 212.33 11.6546C213.695 8.46856 215.516 7.33055 213.695 3.00655C211.876 -1.31745 210.283 -3.82045 210.283 -3.82045Z" fill="#5ED15A"/>
<path d="M239.086 54.3096C238.393 53.9886 235.558 54.3096 235.444 54.9926C235.33 55.6756 235.899 56.4716 236.241 56.8136C236.583 57.1556 237.478 58.6346 237.258 59.2036C237.038 59.7726 236.682 62.5036 237.258 63.1866C237.834 63.8696 238.973 64.8936 239.086 65.9176C239.2 66.9416 238.858 68.9906 238.631 70.1286C238.403 71.2666 237.834 72.5186 238.517 73.4286C239.2 74.3386 239.883 74.3386 240.565 74.1116C241.247 73.8846 241.053 74.2256 241.622 73.0876C242.191 71.9496 243.41 70.8116 243.865 69.9006C244.32 68.9906 244.775 68.4216 244.662 67.5106C244.548 66.6006 244.776 66.1446 243.865 65.2346C242.955 64.3246 242.955 64.2106 242.613 63.1866C242.272 62.1626 243.182 61.8206 242.158 60.9106C241.134 60.0006 241.589 59.5446 240.565 59.6586C239.541 59.7726 239.313 60.9106 239.199 59.2036C239.085 57.4966 241.603 57.0795 240.966 56.0325C240.462 55.2035 239.799 54.6406 239.086 54.3096Z" fill="#5ED15A"/>
<path d="M235.053 62.4495C234.685 61.9755 234.48 61.6225 233.589 61.5585C232.698 61.4945 231.298 61.6225 231.043 62.4495C230.788 63.2765 230.534 63.8715 229.897 64.2105C229.26 64.5495 228.624 64.4855 228.306 65.5675C227.988 66.6495 227.415 67.3495 227.542 68.1135C227.669 68.8775 226.742 69.0686 227.524 70.0236C228.306 70.9786 228.37 71.3605 229.006 71.3605C229.642 71.3605 229.689 71.5516 231.13 71.0426C232.57 70.5336 233.525 69.8336 234.098 69.3876C234.671 68.9416 235.358 68.1785 235.428 67.7965C235.498 67.4145 235.613 65.8875 235.428 65.5055C235.243 65.1235 234.734 64.8275 234.861 64.2115C234.99 63.5955 235.452 62.9645 235.053 62.4495Z" fill="#5ED15A"/>
<path d="M119.1 11.8676C117.355 11.7056 112.518 11.5546 111.107 11.8676C109.696 12.1806 108.129 13.7486 107.032 14.5316C105.935 15.3156 104.211 15.1586 104.211 16.5686C104.211 17.9786 104.054 19.8596 105.465 20.1736C106.876 20.4866 107.967 21.8546 111.653 21.0926C115.339 20.3306 118.316 19.8176 119.883 21.0926C121.45 22.3676 122.861 22.5246 124.271 24.7186C125.682 26.9126 128.659 28.0096 129.286 30.3606C129.913 32.7116 126.778 34.5916 128.032 36.3156C129.286 38.0396 133.831 37.5695 135.085 39.4505C136.339 41.3315 136.809 43.8385 138.533 44.3085C140.257 44.7785 142.921 43.8385 143.391 42.1145C143.861 40.3905 143.391 37.7266 141.51 36.9426C139.629 36.1586 138.062 34.1216 138.689 33.6516C139.316 33.1816 145.428 35.0616 146.368 33.4946C147.308 31.9276 145.741 28.6786 144.331 28.0306C142.921 27.3826 140.413 25.5016 138.062 24.2476C135.711 22.9936 134.301 16.8816 131.793 16.8816C129.285 16.8816 128.972 19.8596 127.561 19.2326C126.151 18.6056 124.27 15.0016 123.173 13.7476C122.078 12.4946 121.129 12.0556 119.1 11.8676Z" fill="#5ED15A"/>
<path d="M219.864 35.1235C218.418 34.3155 214.129 33.2386 211.867 33.8036C209.604 34.3696 207.719 33.6115 206.211 34.3675C204.703 35.1235 203.006 36.6315 204.703 37.5745C206.4 38.5175 207.908 36.8205 208.474 38.3285C209.04 39.8365 208.285 40.2135 210.359 40.9685C212.433 41.7225 212.244 41.3455 215.45 40.9685C218.655 40.5915 220.541 40.4025 221.106 38.7055C221.672 37.0085 221.063 35.7925 219.864 35.1235Z" fill="#5ED15A"/>
</g>
<mask id="mask3_20_67" style="mask-type:luminance" maskUnits="userSpaceOnUse" x="0" y="0" width="307" height="307">
<path d="M153.462 306.048C237.787 306.048 306.146 237.689 306.146 153.364C306.146 69.0385 237.787 0.67955 153.462 0.67955C69.1366 0.67955 0.777588 69.0385 0.777588 153.364C0.777588 237.689 69.1366 306.048 153.462 306.048Z" fill="white"/>
</mask>
<g mask="url(#mask3_20_67)">
<path d="M106.723 141.809C106.477 140.787 111.248 140.058 112.78 139.984C114.313 139.911 116.356 140.276 116.94 140.896C117.524 141.516 118.4 142.83 119.348 143.414C120.297 143.998 119.786 144.436 121.246 144.728C122.706 145.02 123.216 144.509 123.07 145.458C122.924 146.407 121.246 146.991 120.516 146.918C119.786 146.845 118.181 146.48 117.451 145.896C116.721 145.312 113.729 143.196 112.78 143.05C111.832 142.904 106.847 142.321 106.723 141.809Z" fill="#5ED15A"/>
</g>
<mask id="mask4_20_67" style="mask-type:luminance" maskUnits="userSpaceOnUse" x="0" y="0" width="307" height="307">
<path d="M153.462 306.048C237.787 306.048 306.146 237.689 306.146 153.364C306.146 69.0385 237.787 0.67955 153.462 0.67955C69.1366 0.67955 0.777588 69.0385 0.777588 153.364C0.777588 237.689 69.1366 306.048 153.462 306.048Z" fill="white"/>
</mask>
<g mask="url(#mask4_20_67)">
<path d="M136.427 149.91C136.472 150.424 134.748 150.64 133.8 150.786C132.851 150.932 129.567 151.37 129.129 151.735C128.691 152.1 127.012 153.049 126.356 152.83C125.699 152.611 124.75 151.695 124.677 151.387C124.604 151.079 124.896 149.181 125.261 148.597C125.626 148.013 126.137 147.356 126.94 147.429C127.743 147.502 128.691 147.856 129.275 147.423C129.859 146.991 130.443 146.638 131.026 146.924C131.61 147.21 136.281 148.231 136.427 149.91Z" fill="#5ED15A"/>
</g>
<mask id="mask5_20_67" style="mask-type:luminance" maskUnits="userSpaceOnUse" x="0" y="0" width="307" height="307">
<path d="M153.462 306.048C237.787 306.048 306.146 237.689 306.146 153.364C306.146 69.0385 237.787 0.67955 153.462 0.67955C69.1366 0.67955 0.777588 69.0385 0.777588 153.364C0.777588 237.689 69.1366 306.048 153.462 306.048Z" fill="white"/>
</mask>
<g mask="url(#mask5_20_67)">
<path d="M60.4635 25.5976C65.1845 26.2266 70.3065 27.5026 73.1635 28.7726C76.0205 30.0426 81.7365 27.8206 87.1335 28.7726C92.5315 29.7246 94.4365 28.4546 96.9765 30.9956C99.5165 33.5356 102.692 34.8055 103.962 34.1705C105.232 33.5355 106.502 31.3126 107.455 32.5826C108.408 33.8526 107.772 40.8375 103.01 43.0605C98.2466 45.2835 94.4365 45.6006 94.4365 49.4106C94.4365 53.2206 96.9765 53.5385 99.5165 54.8085C102.057 56.0785 103.645 58.9365 106.502 59.5715C109.359 60.2065 112.852 58.6195 114.757 63.3815C116.662 68.1445 120.472 69.4145 119.837 66.5565C119.202 63.6995 118.249 61.7946 122.06 58.9366C125.87 56.0796 124.283 53.8566 122.06 50.9986C119.837 48.1416 119.837 45.2836 122.378 44.0136C124.918 42.7436 132.221 41.7906 133.173 44.0136C134.125 46.2366 136.348 50.6806 139.523 51.3156C142.698 51.9506 142.786 46.0526 144.92 46.8326C147.207 47.6686 146.44 52.8496 147.207 54.5766C147.975 56.3036 153.923 56.8796 155.266 59.5656C156.609 62.2516 156.225 66.0156 156.609 68.0676C156.993 70.1196 157.185 71.6546 156.609 72.9976C156.033 74.3406 156.417 76.2596 158.912 77.0266C161.406 77.7946 161.215 79.1376 158.912 79.9046C156.609 80.6726 152.772 80.0965 152.58 77.7935C152.388 75.4905 150.853 73.5726 148.742 73.5726C146.631 73.5726 139.34 73.7646 138.572 75.1076C137.804 76.4506 137.996 77.6026 140.491 77.6026C142.986 77.6026 143.561 79.9706 142.794 80.2256C142.026 80.4806 140.875 82.0156 141.835 82.3996C142.794 82.7836 150.384 79.7135 151.674 80.8645C152.964 82.0155 151.237 84.8945 148.551 86.0455C145.865 87.1965 141.259 91.8026 139.533 90.6506C137.806 89.4996 143.946 85.8535 141.644 86.0455C139.341 86.2375 132.434 89.0986 132.05 90.8336C131.666 92.5696 135.12 95.0636 133.393 96.4066C131.666 97.7496 126.869 96.0225 126.293 98.3255C125.717 100.629 127.252 105.426 123.223 109.455C119.194 113.484 112.861 116.363 112.861 119.625C112.861 122.887 114.78 127.3 114.78 129.027C114.78 130.754 114.012 134.016 112.861 134.208C111.71 134.4 111.326 133.057 109.791 132.673C108.256 132.289 108.064 129.603 107.105 127.492C106.146 125.381 107.297 121.927 103.459 121.736C99.6205 121.544 97.5105 121.544 96.9345 122.695C96.3585 123.846 98.0855 125.573 95.3995 125.573C92.7135 125.573 91.1785 124.23 89.6425 125.765C88.1075 127.3 84.2695 129.027 83.5025 131.138C82.7355 133.249 81.3915 137.662 83.3105 141.691C85.2295 145.721 83.6945 144.953 84.2695 146.296C84.8455 147.639 89.0665 149.75 90.7935 150.325C92.5205 150.901 95.5905 148.406 95.0145 146.104C94.4385 143.801 98.0846 142.458 99.4276 142.458C100.771 142.458 101.731 144.569 101.539 145.72C101.347 146.871 98.6606 151.86 98.4686 153.971C98.2766 156.082 100.58 156.657 104.226 157.809C107.872 158.96 107.68 159.344 107.68 162.414C107.68 165.484 106.781 171.049 110.588 170.857C114.395 170.665 118.617 172.392 120.152 172.2C121.687 172.008 124.757 166.06 126.484 166.443C128.211 166.827 126.868 170.664 128.978 170.856C131.088 171.048 135.31 167.978 139.915 169.897C144.52 171.816 149.125 172.2 150.469 174.118C151.812 176.037 152.963 179.683 155.074 180.642C157.185 181.601 162.941 180.834 165.436 182.753C167.93 184.672 168.506 191.388 173.111 193.306C177.716 195.225 183.473 196.568 187.118 197.911C190.764 199.254 197.863 200.597 197.288 205.97C196.712 211.343 195.753 214.221 193.259 217.099C190.764 219.977 190.764 221.129 193.259 227.844C195.753 234.56 193.835 237.438 192.108 239.357C190.381 241.276 185.776 244.922 181.555 245.881C177.334 246.84 175.607 248.184 174.455 249.719C173.304 251.254 172.152 255.859 173.304 258.354C174.455 260.849 174.647 262.384 173.496 263.727C172.345 265.07 169.658 266.989 166.972 267.373C164.286 267.757 161.791 269.676 161.407 271.786C161.023 273.897 160.256 278.118 156.226 280.037C152.197 281.956 149.51 281.572 148.551 283.107C147.592 284.642 146.632 288.864 147.975 290.782C149.318 292.701 149.702 295.387 147.975 296.73C146.248 298.073 144.521 299.224 144.521 300.951C144.521 302.678 144.137 304.597 142.794 304.789C141.451 304.981 136.27 310.929 133.967 310.546C131.664 310.162 131.089 306.9 131.856 305.365C132.623 303.83 133.391 302.103 132.815 299.8C132.239 297.497 131.856 295.962 131.472 294.043C131.088 292.124 130.704 291.74 130.896 288.67C131.088 285.6 131.855 282.338 132.431 279.076C133.007 275.814 133.199 269.674 133.007 265.069C132.815 260.464 133.583 260.272 133.774 256.051C133.965 251.83 134.158 246.073 134.158 242.811C134.158 239.549 135.501 236.479 132.815 234.752C130.129 233.025 121.686 232.641 116.121 225.925C110.556 219.209 106.719 219.017 107.486 211.534C108.254 204.051 110.748 203.091 112.091 200.213C113.434 197.335 114.969 192.154 114.969 189.084C114.969 186.014 116.696 184.479 116.504 182.944C116.312 181.409 114.201 176.612 112.474 174.693C110.747 172.774 107.869 171.623 105.374 171.239C102.879 170.855 100.193 167.401 97.6985 163.756C95.2035 160.11 92.9015 160.11 90.4065 160.11C87.9115 160.11 85.9935 157.04 83.1145 156.272C80.2365 155.504 76.5905 154.353 73.3285 152.818C70.0665 151.283 68.5315 150.132 66.2285 145.91C63.9255 141.688 62.5825 132.862 61.4315 130.751C60.2805 128.64 58.1695 120.389 56.2505 119.814C54.3315 119.238 52.2215 117.32 51.8375 119.046C51.4535 120.773 52.0295 125.378 53.5645 127.105C55.0995 128.832 56.2505 131.326 56.8265 132.669C57.4025 134.012 57.2105 136.123 55.8675 134.78C54.5245 133.437 51.6465 128.448 50.4945 127.68C49.3435 126.913 46.8485 124.61 45.5055 120.197C44.1625 115.784 44.1625 111.179 43.2025 109.835C42.2435 108.492 41.6675 106.573 39.3645 104.27C37.0615 101.967 36.8695 98.5126 37.8295 94.8676C38.7895 91.2216 38.2775 83.5466 37.2855 82.3956C36.2945 81.2446 33.4345 78.4296 31.1135 77.0226C29.8865 76.2796 30.4735 74.4126 31.1135 72.7146C31.7535 71.0176 32.7725 65.9255 31.9235 61.6815C31.0745 57.4385 32.2635 52.3466 29.3775 51.6676C26.4925 50.9886 24.1155 50.8186 22.4185 49.4606C20.7215 48.1026 17.6665 45.8966 14.6105 46.2356C11.5555 46.5746 3.40854 45.8966 2.05054 47.4236C0.692541 48.9516 -2.87146 49.6295 -3.72046 51.1575C-4.56946 52.6845 -6.77545 54.0426 -9.15145 55.0616C-11.5275 56.0796 -15.7705 57.9465 -17.1285 56.5885C-18.4865 55.2305 -18.8255 52.1756 -20.3535 51.3266C-21.8815 50.4776 -24.7665 51.1565 -25.7845 48.9505C-26.8025 46.7445 -28.8395 47.4226 -29.8585 46.4046C-30.8765 45.3866 -28.6705 43.6886 -26.4635 41.4826C-24.2575 39.2766 -15.7705 36.2206 -17.6375 34.1846C-19.5045 32.1476 -21.2015 34.5236 -22.7295 34.0146C-24.2575 33.5056 -26.8035 33.1656 -25.9545 31.6386C-25.1055 30.1106 -21.7115 28.5836 -20.1835 28.5836C-18.6555 28.5836 -13.9035 28.9226 -11.0185 27.5656C-8.13346 26.2076 -4.73846 24.1706 -2.53146 24.5106C-0.32546 24.8496 1.37254 27.0566 3.40954 25.3596C5.44654 23.6626 7.65254 20.7766 11.0475 21.1166C14.4425 21.4556 24.1165 21.1166 27.3415 22.4746C30.5665 23.8326 33.1125 25.6996 36.8465 24.5116C40.5805 23.3236 56.3335 25.0476 60.4635 25.5976Z" fill="#55C752"/>
<path d="M297.214 40.1056C289.355 30.8596 278.491 28.0865 275.024 28.3175C271.557 28.5485 264.16 30.6285 261.849 32.9405C259.538 35.2515 253.99 37.5636 253.297 40.1056C252.604 42.6486 251.448 43.3415 250.061 44.9595C248.674 46.5775 246.594 47.9645 248.905 49.8135C251.216 51.6625 254.915 51.8935 255.377 53.9745C255.839 56.0545 256.07 57.6725 259.075 57.9035C262.08 58.1345 261.849 61.6015 264.854 59.9835C267.859 58.3655 270.401 56.5166 269.246 54.2046C268.09 51.8936 267.397 48.1945 266.703 46.1145C266.01 44.0345 264.392 43.5725 266.241 42.1855C268.09 40.7985 268.784 39.4116 270.864 39.4116C272.944 39.4116 273.407 37.5625 274.331 40.1045C275.256 42.6475 273.407 44.2655 273.869 46.5765C274.331 48.8875 273.638 51.4306 275.949 51.4306C278.261 51.4306 280.11 50.2745 281.034 51.1995C281.959 52.1235 283.808 52.5866 282.19 53.9736C280.572 55.3606 278.492 55.3605 277.798 56.5155C277.105 57.6715 276.873 60.4116 276.873 60.4116C276.873 60.4116 276.068 63.4495 272.541 63.9125C269.014 64.3745 262.311 66.9175 260.924 66.2235C259.537 65.5305 260.924 62.2945 259.306 61.6005C257.688 60.9075 255.145 62.2935 255.608 63.2185C256.07 64.1425 256.533 65.0746 255.608 66.3426C254.683 67.6106 248.681 67.6106 247.868 68.3036C247.055 68.9966 245.437 70.8466 244.744 72.2326C244.051 73.6196 242.201 76.6245 241.277 76.6245C240.352 76.6245 241.739 78.4736 242.664 80.5536C243.589 82.6336 246.594 88.4125 243.82 89.3375C241.046 90.2615 236.886 88.8755 234.343 90.4935C231.8 92.1115 231.569 98.5836 233.418 101.358C235.267 104.132 237.116 105.519 239.89 105.287C242.664 105.056 245.206 105.287 246.593 102.744C247.98 100.201 248.673 98.8145 249.367 95.8095C250.06 92.8045 247.749 90.4936 250.291 90.2626C252.834 90.0316 253.296 92.1115 254.914 90.0315C256.532 87.9515 257.919 85.8705 260.924 85.6395C263.929 85.4085 260.693 89.7995 262.773 90.7245C264.853 91.6495 267.858 92.3425 269.014 93.9605C270.17 95.5785 272.019 98.5835 270.863 100.202C269.707 101.82 267.858 105.337 269.245 105.312C270.632 105.287 272.481 105.75 273.406 102.976C274.33 100.202 275.948 97.4275 274.793 95.8105C273.637 94.1925 273.406 90.9565 272.019 90.4945C270.632 90.0325 269.939 88.6456 269.014 87.2586C268.089 85.8716 264.16 84.4845 267.627 84.9475C271.094 85.4095 276.41 87.2585 276.873 89.1085C277.335 90.9575 277.335 92.1136 278.26 94.8876C279.184 97.6616 277.798 99.7415 280.802 100.435C283.807 101.128 284.269 101.36 284.731 102.978C285.193 104.596 284.269 106.907 285.193 104.596C286.118 102.284 285.886 101.36 285.424 99.2795C284.962 97.1995 283.112 94.4255 285.424 93.9635C287.735 93.5015 288.429 93.0385 289.353 93.9635C290.278 94.8885 289.584 95.8125 290.509 97.8925C291.434 99.9725 291.434 100.436 293.976 101.129C296.519 101.822 295.825 103.672 298.599 103.903C301.373 104.134 304.609 102.156 304.609 105.572C304.609 108.988 303.684 109.681 304.609 111.993C305.534 114.304 304.609 116.385 302.298 115.691C299.987 114.998 297.213 114.073 294.208 114.304C291.203 114.535 290.047 111.068 287.505 111.762C284.962 112.455 281.726 113.189 281.495 115.827C281.264 118.465 283.113 120.083 281.726 120.083C280.339 120.083 275.485 118.003 273.174 116.154C270.863 114.305 267.858 114.536 266.24 113.38C264.622 112.224 261.617 109.913 262.079 108.988C262.541 108.063 265.777 106.445 264.159 105.058C262.541 103.671 259.305 103.671 256.531 104.596C253.757 105.52 252.37 106.676 249.366 108.525C246.361 110.374 243.356 112.223 242.432 111.53C241.507 110.837 242.201 109.45 240.352 109.912C238.503 110.374 237.116 111.299 236.423 112.223C235.73 113.147 232.147 116.846 232.205 118.926C232.262 121.006 231.107 126.554 228.795 131.87C226.484 137.186 223.941 139.266 222.785 141.809C221.629 144.351 218.856 150.361 220.242 154.522C221.629 158.683 222.553 161.687 223.709 164.23C224.865 166.773 226.483 170.24 228.794 170.702C231.105 171.164 236.191 175.325 236.653 176.249C237.115 177.174 238.964 178.56 242.894 178.792C246.823 179.023 248.441 179.023 251.446 177.636C254.451 176.249 259.742 173.707 262.413 174.169C265.084 174.631 268.551 174.398 271.093 178.906C273.636 183.414 271.786 185.957 274.098 188.731C276.409 191.505 277.796 193.816 276.641 195.434C275.485 197.052 272.48 198.901 274.792 200.288C277.103 201.675 279.877 202.368 281.033 204.449C282.189 206.529 285.194 212.539 284.731 214.85C284.269 217.161 282.188 222.247 283.113 225.945C284.038 229.643 282.42 231.724 284.038 234.266C285.656 236.809 288.43 240.738 290.048 242.587C291.666 244.436 295.595 248.366 294.902 250.677C294.209 252.989 294.902 257.149 296.982 259.692C299.062 262.235 303.007 265.702 304.964 266.395C306.921 267.088 306.459 268.938 308.077 268.938C309.695 268.938 311.082 266.395 313.856 265.24C316.63 264.084 321.021 262.929 322.639 259.23C324.257 255.532 324.488 253.683 324.488 251.371C324.488 249.06 321.483 246.286 324.488 243.974C327.493 241.663 329.342 239.12 330.267 237.271C331.192 235.422 332.347 230.799 332.347 227.101C332.347 223.403 331.191 221.322 333.503 219.473C335.814 217.624 338.357 216.699 337.201 214.85C336.045 213.001 335.121 211.845 333.271 205.373C331.422 198.901 329.342 197.514 330.035 195.434C330.729 193.354 330.035 190.811 331.191 187.344C332.347 183.877 332.115 182.721 334.889 180.872C337.663 179.023 342.618 174.862 342.618 171.164C342.618 167.466 343.876 168.39 342.618 163.767C341.36 159.144 341.823 158.682 339.743 156.833C337.663 154.984 337.432 154.059 335.814 156.14C334.196 158.22 333.04 163.768 330.729 161.919C328.418 160.07 325.182 154.291 323.564 152.442C321.946 150.593 324.026 150.131 320.79 147.588C317.554 145.046 316.86 144.583 314.318 140.654C311.775 136.724 310.62 135.106 310.62 132.795C310.62 130.484 308.309 127.941 309.695 126.092C311.082 124.243 313.393 126.092 314.549 128.635C315.705 131.178 320.559 135.338 321.483 138.112C322.408 140.886 326.799 148.513 328.186 149.669C329.573 150.825 329.342 154.985 331.653 154.292C333.964 153.599 335.351 148.051 337.2 147.127C339.049 146.203 343.21 148.976 345.29 145.509C347.37 142.042 350.144 138.806 348.757 136.263C347.37 133.72 348.064 130.253 346.677 128.866C345.29 127.479 340.667 130.715 337.662 129.097C334.657 127.479 328.879 123.318 329.11 119.851C329.341 116.384 337.431 103.902 335.351 98.8166C333.271 93.7316 319.171 65.7635 313.624 63.9145C308.077 62.0655 302.067 57.2116 302.76 51.4326C303.455 45.6526 297.214 40.1056 297.214 40.1056Z" fill="#5ED15A"/>
<path d="M210.283 -3.82045C205.504 -9.05445 191.622 -12.9234 184.34 -12.6954C177.058 -12.4674 166.817 -11.5574 162.949 -11.1024C159.08 -10.6474 153.597 -9.50945 151.674 -9.73645C149.75 -9.96445 144.061 -9.50945 141.558 -6.77845C139.055 -4.04745 133.821 -3.13745 134.503 0.276551C135.186 3.69055 137.461 3.91756 140.647 4.60056C143.833 5.28356 147.474 3.00756 148.384 4.60056C149.294 6.19356 148.384 10.0626 149.294 11.1996C150.204 12.3376 153.845 13.7026 154.983 15.5236C156.121 17.3446 159.307 17.1166 160.217 20.0746C161.127 23.0326 161.355 34.6386 162.493 36.6866C163.631 38.7346 162.721 41.0105 163.858 42.6035C164.996 44.1965 172.278 48.9756 174.326 48.9756C176.374 48.9756 174.326 43.2866 176.602 40.3276C178.878 37.3696 185.477 35.5485 190.256 34.1835C195.035 32.8185 197.766 30.6176 201.634 28.3046C205.503 25.9916 210.964 24.6156 210.282 21.0936C209.599 17.5716 208.462 17.5716 209.144 15.9786C209.827 14.3856 210.964 14.8406 212.33 11.6546C213.695 8.46856 215.516 7.33055 213.695 3.00655C211.876 -1.31745 210.283 -3.82045 210.283 -3.82045Z" fill="#5ED15A"/>
<path d="M239.086 54.3096C238.393 53.9886 235.558 54.3096 235.444 54.9926C235.33 55.6756 235.899 56.4716 236.241 56.8136C236.583 57.1556 237.478 58.6346 237.258 59.2036C237.038 59.7726 236.682 62.5036 237.258 63.1866C237.834 63.8696 238.973 64.8936 239.086 65.9176C239.2 66.9416 238.858 68.9906 238.631 70.1286C238.403 71.2666 237.834 72.5186 238.517 73.4286C239.2 74.3386 239.883 74.3386 240.565 74.1116C241.247 73.8846 241.053 74.2256 241.622 73.0876C242.191 71.9496 243.41 70.8116 243.865 69.9006C244.32 68.9906 244.775 68.4216 244.662 67.5106C244.548 66.6006 244.776 66.1446 243.865 65.2346C242.955 64.3246 242.955 64.2106 242.613 63.1866C242.272 62.1626 243.182 61.8206 242.158 60.9106C241.134 60.0006 241.589 59.5446 240.565 59.6586C239.541 59.7726 239.313 60.9106 239.199 59.2036C239.085 57.4966 241.603 57.0795 240.966 56.0325C240.462 55.2035 239.799 54.6406 239.086 54.3096Z" fill="#5ED15A"/>
<path d="M235.053 62.4495C234.685 61.9755 234.48 61.6225 233.589 61.5585C232.698 61.4945 231.298 61.6225 231.043 62.4495C230.788 63.2765 230.534 63.8715 229.897 64.2105C229.26 64.5495 228.624 64.4855 228.306 65.5675C227.988 66.6495 227.415 67.3495 227.542 68.1135C227.669 68.8775 226.742 69.0686 227.524 70.0236C228.306 70.9786 228.37 71.3605 229.006 71.3605C229.642 71.3605 229.689 71.5516 231.13 71.0426C232.57 70.5336 233.525 69.8336 234.098 69.3876C234.671 68.9416 235.358 68.1785 235.428 67.7965C235.498 67.4145 235.613 65.8875 235.428 65.5055C235.243 65.1235 234.734 64.8275 234.861 64.2115C234.99 63.5955 235.452 62.9645 235.053 62.4495Z" fill="#5ED15A"/>
<path d="M119.1 11.8676C117.355 11.7056 112.518 11.5546 111.107 11.8676C109.696 12.1806 108.129 13.7486 107.032 14.5316C105.935 15.3156 104.211 15.1586 104.211 16.5686C104.211 17.9786 104.054 19.8596 105.465 20.1736C106.876 20.4866 107.967 21.8546 111.653 21.0926C115.339 20.3306 118.316 19.8176 119.883 21.0926C121.45 22.3676 122.861 22.5246 124.271 24.7186C125.682 26.9126 128.659 28.0096 129.286 30.3606C129.913 32.7116 126.778 34.5916 128.032 36.3156C129.286 38.0396 133.831 37.5695 135.085 39.4505C136.339 41.3315 136.809 43.8385 138.533 44.3085C140.257 44.7785 142.921 43.8385 143.391 42.1145C143.861 40.3905 143.391 37.7266 141.51 36.9426C139.629 36.1586 138.062 34.1216 138.689 33.6516C139.316 33.1816 145.428 35.0616 146.368 33.4946C147.308 31.9276 145.741 28.6786 144.331 28.0306C142.921 27.3826 140.413 25.5016 138.062 24.2476C135.711 22.9936 134.301 16.8816 131.793 16.8816C129.285 16.8816 128.972 19.8596 127.561 19.2326C126.151 18.6056 124.27 15.0016 123.173 13.7476C122.078 12.4946 121.129 12.0556 119.1 11.8676Z" fill="#5ED15A"/>
<path d="M219.864 35.1235C218.418 34.3155 214.129 33.2386 211.867 33.8036C209.604 34.3696 207.719 33.6115 206.211 34.3675C204.703 35.1235 203.006 36.6315 204.703 37.5745C206.4 38.5175 207.908 36.8205 208.474 38.3285C209.04 39.8365 208.285 40.2135 210.359 40.9685C212.433 41.7225 212.244 41.3455 215.45 40.9685C218.655 40.5915 220.541 40.4025 221.106 38.7055C221.672 37.0085 221.063 35.7925 219.864 35.1235Z" fill="#5ED15A"/>
</g>
<mask id="mask6_20_67" style="mask-type:luminance" maskUnits="userSpaceOnUse" x="0" y="0" width="307" height="307">
<path d="M153.462 306.048C237.787 306.048 306.146 237.689 306.146 153.364C306.146 69.0385 237.787 0.67955 153.462 0.67955C69.1366 0.67955 0.777588 69.0385 0.777588 153.364C0.777588 237.689 69.1366 306.048 153.462 306.048Z" fill="white"/>
</mask>
<g mask="url(#mask6_20_67)">
<g opacity="0.2">
<path d="M139.212 281.739C138.715 285.211 140.208 286.334 140.908 289.346C141.543 292.063 140.852 295.839 140.152 298.389C139.259 301.621 138.062 305.729 136.533 309.578C135.538 310.232 134.636 310.655 133.964 310.545C131.662 310.167 131.091 306.898 131.855 305.369C132.619 303.831 133.394 302.1 132.814 299.797C132.243 297.495 131.856 295.966 131.469 294.041C131.091 292.126 130.704 291.739 130.897 288.672C131.09 285.605 131.855 282.336 132.435 279.076C133.006 275.816 133.2 269.673 133.007 265.069C132.814 260.465 133.586 260.271 133.78 256.053C133.964 251.826 134.158 246.07 134.158 242.81C134.158 239.55 135.502 236.483 132.814 234.752C130.134 233.021 121.69 232.643 116.128 225.93C110.556 219.207 106.724 219.014 107.489 211.536C108.253 204.049 110.749 203.091 112.094 200.218C113.439 197.336 114.977 192.151 114.977 189.084C114.977 186.017 116.7 184.479 116.507 182.942C116.314 181.413 114.204 176.615 112.482 174.691C110.751 172.775 107.877 171.624 105.382 171.238C102.886 170.86 100.197 167.407 97.7025 163.76C95.2065 160.113 92.9045 160.113 90.4175 160.113C87.9215 160.113 85.9975 157.037 83.1235 156.273C80.2415 155.509 76.5945 154.358 73.3345 152.82C70.0745 151.282 68.5365 150.131 66.2345 145.913C63.9325 141.695 62.5875 132.864 61.4365 130.755C60.2855 128.646 58.1765 120.395 56.2605 119.814C54.3355 119.243 52.2265 117.318 51.8495 119.05C51.4625 120.772 52.0335 125.377 53.5715 127.108C55.1095 128.839 56.2605 131.326 56.8315 132.67C57.4115 134.015 57.2185 136.123 55.8735 134.779C54.5285 133.444 51.6555 128.452 50.5045 127.688C49.3535 126.914 46.8575 124.612 45.5135 120.201C44.1695 115.79 44.1695 111.185 43.2115 109.841C42.2535 108.496 41.6735 106.581 39.3715 104.279C37.0695 101.977 36.8755 98.5136 37.8425 94.8766C38.8005 91.2296 38.2845 83.5496 37.2895 82.3986C36.3045 81.2476 33.4405 78.4386 31.1195 77.0296C29.8945 76.2836 30.4845 74.4146 31.1195 72.7196C31.7645 71.0246 32.7775 65.9326 31.9295 61.6866C31.0825 57.4416 32.2705 52.3486 29.3875 51.6766C26.4955 50.9956 24.1195 50.8296 22.4255 49.4666C20.7315 48.1126 17.6735 45.9025 14.6165 46.2435C11.5685 46.5845 3.41849 45.9026 2.05549 47.4316C0.701489 48.9606 -2.86251 49.6416 -3.70951 51.1616C-4.55651 52.6906 -6.76651 54.0536 -9.14251 55.0666C-11.5185 56.0886 -15.7635 57.9586 -17.1175 56.5956C-17.7435 55.9696 -18.1585 54.9836 -18.5725 54.0266C-16.7125 54.5146 -14.9995 54.2296 -13.1205 53.2346C-9.98951 51.5866 -8.11051 48.3906 -5.07151 46.6136C-2.68651 45.2226 0.629492 44.0166 3.29949 43.3446C8.25349 42.0926 15.3455 42.5246 20.3825 43.2806C26.2115 44.1466 31.8295 43.3726 35.7065 48.6216C39.2425 53.4106 40.4865 60.9156 42.0605 66.7086C44.4555 75.5126 45.8365 83.9756 44.8695 93.1016C48.4885 92.3276 48.5805 102.523 48.8475 105.203C49.0595 107.358 48.3775 109.798 48.8385 111.907C49.1335 113.279 50.7445 117.258 51.9055 113.97C57.7815 113.629 63.0205 112.119 66.6955 117.838C69.1265 121.641 69.3565 126.624 70.0935 130.952C71.2905 137.933 74.5875 147.354 80.9605 151.166C84.8105 153.468 89.6635 154.767 93.7065 156.774C97.6295 158.717 100.696 162.29 103.827 165.467C105.098 166.756 106.415 167.631 107.796 168.349C108.109 169.859 108.873 170.946 110.596 170.863C111.775 170.798 113 170.927 114.169 171.121C114.482 171.268 114.805 171.425 115.128 171.591C117.633 172.871 120.091 174.013 121.178 176.5C122.532 179.622 122.219 185.055 122.513 188.49C122.89 192.92 123.231 195.268 125.773 198.703C128.379 202.221 127.653 204.32 127.257 208.649C126.695 214.81 126.482 224.599 132.874 227.408C138.492 229.885 146.052 227.288 147.94 234.683C149.607 241.185 147.903 249.851 146.945 256.278C145.622 265.116 140.456 273.064 139.212 281.739Z" fill="#59A555"/>
<path d="M330.037 195.43C329.346 197.511 331.428 198.902 333.269 205.376C335.12 211.841 336.049 213.001 337.2 214.852C338.36 216.694 335.809 217.624 333.498 219.475C331.187 221.317 332.347 223.398 332.347 227.1C332.347 230.802 331.187 235.425 330.266 237.267C329.345 239.118 327.495 241.66 324.493 243.971C321.482 246.283 324.493 249.054 324.493 251.366C324.493 253.677 324.262 255.529 322.641 259.231C321.02 262.924 316.628 264.084 313.856 265.235C311.084 266.395 309.693 268.937 308.081 268.937C306.46 268.937 306.921 267.086 304.968 266.395C303.006 265.704 299.066 262.232 296.985 259.691C294.904 257.149 294.212 252.987 294.903 250.675C295.594 248.364 291.671 244.431 290.05 242.589C288.429 240.738 285.658 236.806 284.037 234.264C282.425 231.722 284.036 229.641 283.115 225.939C282.185 222.246 284.266 217.163 284.736 214.851C285.197 212.54 282.185 206.526 281.034 204.445C279.874 202.364 277.103 201.673 274.791 200.282C272.48 198.901 275.49 197.05 276.641 195.429C277.801 193.817 276.411 191.506 274.099 188.725C271.788 185.953 273.639 183.411 271.097 178.908C268.555 174.395 265.083 174.626 262.413 174.165C259.742 173.705 254.457 176.246 251.446 177.637C248.444 179.018 246.822 179.018 242.899 178.788C238.967 178.558 237.116 177.176 236.655 176.246C236.194 175.325 231.111 171.163 228.8 170.702C226.489 170.242 224.868 166.77 223.707 164.228C222.556 161.686 221.626 158.684 220.244 154.521C218.853 150.358 221.626 144.345 222.787 141.803C223.938 139.261 226.488 137.18 228.8 131.866C231.111 126.552 232.263 120.999 232.207 118.927C232.152 116.846 235.734 113.144 236.425 112.223C237.116 111.293 238.506 110.372 240.357 109.911C242.199 109.441 241.508 110.832 242.429 111.523C243.359 112.223 246.362 110.372 249.364 108.521C252.375 106.67 253.756 105.519 256.528 104.589C258.858 103.815 261.502 103.696 263.252 104.497C261.898 107.573 258.978 111.128 254.852 110.842C253.977 112.5 252.9 115.723 251.638 117.012C249.695 118.983 246.72 118.808 244.676 121.064C239.611 126.672 241.011 131.323 240.099 138.037C239.243 144.354 235.191 152.468 238.451 158.942C241.223 164.44 251.004 161.401 256.106 162.93C263.436 165.113 270.72 166.825 277.24 170.896C284.709 175.565 288.438 181.293 291.634 189.572C293.273 193.818 295.824 197.142 295.612 201.82C295.428 205.761 293.079 207.557 293.66 211.517C294.995 220.634 301.561 225.147 302.869 233.656C303.615 238.537 301.572 255.693 305.817 257.747C313.525 261.467 316.84 251.623 316.343 246.724C316.011 243.4 315.551 240.066 317.338 237.027C319.125 233.988 322.845 232.855 324.3 229.577C331.087 214.244 318.331 196.534 329.585 182.242C332.357 178.724 334.411 176.505 338.49 174.856C339.982 174.257 341.207 173.631 342.275 172.95C341.096 176.127 337.22 179.314 334.89 180.87C332.118 182.721 332.347 183.872 331.187 187.344C330.036 190.807 330.727 193.349 330.037 195.43Z" fill="#59A555"/>
<path d="M309.895 105.383C308.882 106.875 306.102 111.01 304.748 112.382C304.711 112.253 304.665 112.124 304.61 111.995C303.689 109.684 304.61 108.984 304.61 105.567C304.61 102.15 301.378 104.13 298.606 103.9C295.825 103.67 296.524 101.819 293.982 101.128C291.431 100.437 291.432 99.9675 290.511 97.8955C289.59 95.8145 290.281 94.8845 289.36 93.9635C288.43 93.0335 287.738 93.5025 285.427 93.9635C283.116 94.4235 284.966 97.1956 285.427 99.2776C285.888 101.359 286.118 102.28 285.197 104.592C284.267 106.904 285.197 104.592 284.736 102.98C284.266 101.359 283.806 101.129 280.804 100.438C277.802 99.7375 279.183 97.6565 278.262 94.8845C277.332 92.1125 277.332 90.9615 276.871 89.1105C276.41 87.2595 271.097 85.4086 267.625 84.9476C264.162 84.4876 268.085 85.8685 269.016 87.2595C269.937 88.6505 270.637 90.0315 272.018 90.4915C273.409 90.9615 273.64 94.1936 274.791 95.8146C275.951 97.4266 274.33 100.208 273.409 102.98C272.479 105.752 270.637 105.292 269.246 105.31C267.855 105.338 269.706 101.82 270.867 100.208C272.018 98.5865 270.167 95.5845 269.016 93.9635C267.856 92.3425 264.853 91.6516 262.772 90.7216C261.308 90.0766 262.478 87.7006 262.248 86.4396C263.141 84.2566 262.597 82.7286 264.687 80.6656C268.389 77.0006 272.441 77.9395 276.53 80.4535C278.759 81.8165 279.653 82.8386 281.817 83.1056C284.092 83.3726 286.319 82.4335 288.658 83.0135C294.589 84.4775 295.804 87.9585 297.72 93.1435C300.4 93.4655 301.938 95.3725 304.59 95.6855C307.021 95.9805 309.462 93.4476 311.93 95.7496C314.813 98.4386 311.691 102.749 309.895 105.383Z" fill="#59A555"/>
<path d="M275.895 62.1546C273.602 68.3436 262.643 68.6005 257.237 69.1255C254.944 69.3555 249.272 69.5766 247.817 71.9716C246.39 74.3106 249.639 79.5876 249.16 82.6906C248.681 85.7666 247.843 89.1005 245.108 90.8405C243.045 92.1575 236.147 91.5586 235.586 94.0266C235.144 95.9976 240.209 99.8556 241.728 100.556C243.708 101.449 246.056 101.265 247.972 100.068C247.594 100.897 247.143 101.735 246.591 102.748C245.21 105.29 242.668 105.06 239.887 105.29C237.115 105.52 235.264 104.13 233.422 101.358C231.571 98.5856 231.801 92.1116 234.343 90.4906C236.885 88.8786 241.047 90.2606 243.819 89.3396C246.591 88.4096 243.589 82.6356 242.668 80.5536C241.738 78.4726 240.358 76.6216 241.278 76.6216C242.198 76.6216 244.049 73.6195 244.74 72.2375C245.44 70.8465 247.051 68.9956 247.871 68.3056C248.681 67.6146 254.686 67.6146 255.607 66.3436C256.528 65.0726 256.068 64.1426 255.607 63.2216C255.146 62.2916 257.688 60.9106 259.309 61.6006C260.921 62.2916 259.539 65.5326 260.921 66.2236C262.312 66.9146 269.016 64.3726 272.543 63.9126C274.182 63.7016 275.241 62.9196 275.895 62.1546Z" fill="#59A555"/>
<path d="M264.853 59.9816C261.851 61.6026 262.081 58.1306 259.079 57.9006C256.068 57.6706 255.837 56.0586 255.377 53.9776C254.916 51.8966 251.214 51.6656 248.903 49.8146C246.591 47.9636 248.673 46.5825 250.063 44.9615C251.444 43.3405 252.605 42.6496 253.295 40.1086C253.332 39.9886 253.369 39.8696 253.424 39.7496C257.771 40.5696 256.205 47.4766 258.968 50.6806C262.762 55.0916 266.013 52.5866 267.468 48.8296C267.947 50.6626 268.499 52.7246 269.245 54.2076C270.397 56.5186 267.855 58.3696 264.853 59.9816Z" fill="#59A555"/>
</g>
</g>
<path opacity="0.2" d="M69.6697 281.02C93.7237 296.841 122.522 306.051 153.464 306.051C237.783 306.051 306.143 237.691 306.143 153.363C306.143 99.8295 278.589 52.7336 236.89 25.4836C355.883 152.862 274.387 339.6 69.6697 281.02Z" fill="#4287A5"/>
</g>
<defs>
<filter id="filter0_ii_20_67" x="0.777588" y="0.67955" width="305.368" height="309.371" filterUnits="userSpaceOnUse" color-interpolation-filters="sRGB">
<feFlood flood-opacity="0" result="BackgroundImageFix"/>
<feBlend mode="normal" in="SourceGraphic" in2="BackgroundImageFix" result="shape"/>
<feColorMatrix in="SourceAlpha" type="matrix" values="0 0 0 0 0 0 0 0 0 0 0 0 0 0 0 0 0 0 127 0" result="hardAlpha"/>
<feOffset dy="2"/>
<feGaussianBlur stdDeviation="3.5"/>
<feComposite in2="hardAlpha" operator="arithmetic" k2="-1" k3="1"/>
<feColorMatrix type="matrix" values="0 0 0 0 1 0 0 0 0 1 0 0 0 0 1 0 0 0 0.29 0"/>
<feBlend mode="normal" in2="shape" result="effect1_innerShadow_20_67"/>
<feColorMatrix in="SourceAlpha" type="matrix" values="0 0 0 0 0 0 0 0 0 0 0 0 0 0 0 0 0 0 127 0" result="hardAlpha"/>
<feOffset dy="4"/>
<feGaussianBlur stdDeviation="2"/>
<feComposite in2="hardAlpha" operator="arithmetic" k2="-1" k3="1"/>
<feColorMatrix type="matrix" values="0 0 0 0 0 0 0 0 0 0 0 0 0 0 0 0 0 0 0.25 0"/>
<feBlend mode="normal" in2="effect1_innerShadow_20_67" result="effect2_innerShadow_20_67"/>
</filter>
</defs>
</svg>
