<svg width="130" height="130" viewBox="0 0 130 130" fill="none" xmlns="http://www.w3.org/2000/svg">
<path d="M64.7371 129.418C100.314 129.418 129.155 100.577 129.155 65C129.155 29.4229 100.314 0.582001 64.7371 0.582001C29.16 0.582001 0.319092 29.4229 0.319092 65C0.319092 100.577 29.16 129.418 64.7371 129.418Z" fill="#F3F4DC"/>
<path d="M93.5542 103.093C93.5542 109.427 88.4192 114.562 82.0862 114.562C75.7522 114.562 70.6182 109.427 70.6182 103.093C70.6182 96.759 75.7522 91.625 82.0862 91.625C88.4192 91.625 93.5542 96.759 93.5542 103.093Z" fill="#E2E2C7"/>
<path d="M115.592 87.022C115.592 90.541 112.739 93.393 109.221 93.393C105.702 93.393 102.85 90.54 102.85 87.022C102.85 83.503 105.703 80.651 109.221 80.651C112.739 80.651 115.592 83.503 115.592 87.022Z" fill="#E2E2C7"/>
<path d="M98.6651 63.3231C98.6651 66.2471 96.2951 68.6161 93.3721 68.6161C90.4491 68.6161 88.0791 66.2471 88.0791 63.3231C88.0791 60.4001 90.4491 58.0301 93.3721 58.0301C96.2951 58.0301 98.6651 60.4001 98.6651 63.3231Z" fill="#E2E2C7"/>
<path d="M95.9212 39.1156C95.9212 45.3406 90.8742 50.3876 84.6502 50.3876C78.4242 50.3876 73.3772 45.3406 73.3772 39.1156C73.3772 32.8906 78.4242 27.8446 84.6502 27.8446C90.8742 27.8446 95.9212 32.8916 95.9212 39.1156Z" fill="#E2E2C7"/>
<path d="M111.015 43.639C111.015 46.887 108.382 49.52 105.134 49.52C101.886 49.52 99.2532 46.887 99.2532 43.639C99.2532 40.391 101.886 37.758 105.134 37.758C108.382 37.758 111.015 40.391 111.015 43.639Z" fill="#E2E2C7"/>
<path d="M81.7922 13.0257C81.7922 16.1107 79.2912 18.6117 76.2052 18.6117C73.1192 18.6117 70.6182 16.1107 70.6182 13.0257C70.6182 9.93973 73.1192 7.43771 76.2052 7.43771C79.2912 7.43771 81.7922 9.93973 81.7922 13.0257Z" fill="#E2E2C7"/>
</svg>
