<svg width="130" height="130" viewBox="0 0 130 130" fill="none" xmlns="http://www.w3.org/2000/svg">
<g filter="url(#filter0_i_24_303)">
<path d="M64.737 129.753C100.314 129.753 129.155 100.912 129.155 65.3347C129.155 29.7577 100.314 0.916748 64.737 0.916748C29.1599 0.916748 0.31897 29.7577 0.31897 65.3347C0.31897 100.912 29.1599 129.753 64.737 129.753Z" fill="#F3F4DC"/>
<path d="M93.554 103.428C93.554 109.762 88.419 114.897 82.086 114.897C75.752 114.897 70.618 109.762 70.618 103.428C70.618 97.0938 75.752 91.9598 82.086 91.9598C88.419 91.9598 93.554 97.0938 93.554 103.428Z" fill="#E2E2C7"/>
<path d="M115.591 87.3568C115.591 90.8758 112.738 93.7278 109.22 93.7278C105.701 93.7278 102.849 90.8748 102.849 87.3568C102.849 83.8378 105.702 80.9858 109.22 80.9858C112.738 80.9858 115.591 83.8378 115.591 87.3568Z" fill="#E2E2C7"/>
<path d="M98.665 63.6579C98.665 66.5819 96.295 68.9509 93.372 68.9509C90.449 68.9509 88.079 66.5819 88.079 63.6579C88.079 60.7349 90.449 58.3649 93.372 58.3649C96.295 58.3649 98.665 60.7349 98.665 63.6579Z" fill="#E2E2C7"/>
<path d="M95.9211 39.4503C95.9211 45.6753 90.8741 50.7223 84.6501 50.7223C78.4241 50.7223 73.3771 45.6753 73.3771 39.4503C73.3771 33.2253 78.4241 28.1793 84.6501 28.1793C90.8741 28.1793 95.9211 33.2263 95.9211 39.4503Z" fill="#E2E2C7"/>
<path d="M111.015 43.9738C111.015 47.2218 108.382 49.8548 105.134 49.8548C101.886 49.8548 99.253 47.2218 99.253 43.9738C99.253 40.7258 101.886 38.0928 105.134 38.0928C108.382 38.0928 111.015 40.7258 111.015 43.9738Z" fill="#E2E2C7"/>
<path d="M81.792 13.3605C81.792 16.4455 79.291 18.9465 76.205 18.9465C73.119 18.9465 70.618 16.4455 70.618 13.3605C70.618 10.2745 73.119 7.77246 76.205 7.77246C79.291 7.77246 81.792 10.2745 81.792 13.3605Z" fill="#E2E2C7"/>
</g>
<defs>
<filter id="filter0_i_24_303" x="-15.681" y="0.916748" width="144.836" height="132.836" filterUnits="userSpaceOnUse" color-interpolation-filters="sRGB">
<feFlood flood-opacity="0" result="BackgroundImageFix"/>
<feBlend mode="normal" in="SourceGraphic" in2="BackgroundImageFix" result="shape"/>
<feColorMatrix in="SourceAlpha" type="matrix" values="0 0 0 0 0 0 0 0 0 0 0 0 0 0 0 0 0 0 127 0" result="hardAlpha"/>
<feOffset dx="-16" dy="4"/>
<feGaussianBlur stdDeviation="13"/>
<feComposite in2="hardAlpha" operator="arithmetic" k2="-1" k3="1"/>
<feColorMatrix type="matrix" values="0 0 0 0 0 0 0 0 0 0 0 0 0 0 0 0 0 0 0.77 0"/>
<feBlend mode="normal" in2="shape" result="effect1_innerShadow_24_303"/>
</filter>
</defs>
</svg>
