<svg width="221" height="191" viewBox="0 0 221 191" fill="none" xmlns="http://www.w3.org/2000/svg">
<g filter="url(#filter0_ii_9_29)">
<path d="M143.383 117.756L167.238 84.145L220.151 121.701L196.296 155.312L143.383 117.756Z" fill="white"/>
<path d="M170.787 132.525L148.087 116.413L167.527 89.024L190.227 105.136L170.787 132.525Z" fill="#53A2D3"/>
<path d="M196.017 150.433L173.318 134.322L192.758 106.932L215.457 123.043L196.017 150.433Z" fill="#53A2D3"/>
<path d="M25.0881 33.7939L48.9432 0.18396L101.857 37.739L78.0021 71.3489L25.0881 33.7939Z" fill="white"/>
<path d="M52.4881 48.564L29.7881 32.452L49.2281 5.06195L71.9271 21.174L52.4881 48.564Z" fill="#53A2D3"/>
<path d="M77.7191 66.4729L55.019 50.3609L74.459 22.9719L97.1591 39.0809L77.7191 66.4729Z" fill="#53A2D3"/>
<path d="M0.0581055 69.0599L23.9131 35.45L76.8271 73.0049L52.9721 106.617L0.0581055 69.0599Z" fill="white"/>
<path d="M27.4563 83.829L4.7583 67.718L24.1983 40.3279L46.8963 56.4399L27.4563 83.829Z" fill="#53A2D3"/>
<path d="M52.6883 101.737L29.9893 85.627L49.4293 58.238L72.1283 74.35L52.6883 101.737Z" fill="#53A2D3"/>
<path d="M118.352 153.022L142.207 119.412L195.121 156.967L171.266 190.577L118.352 153.022Z" fill="white"/>
<path d="M145.747 167.789L123.048 151.679L142.488 124.29L165.187 140.402L145.747 167.789Z" fill="#53A2D3"/>
<path d="M170.987 185.699L148.287 169.588L167.727 142.199L190.427 158.309L170.987 185.699Z" fill="#53A2D3"/>
<path d="M69.353 144.049C69.7436 143.498 70.239 143.029 70.8108 142.67C71.3826 142.31 72.0196 142.067 72.6854 141.954C73.3513 141.841 74.0329 141.86 74.6914 142.01C75.3499 142.16 75.9723 142.439 76.523 142.83C77.5985 143.634 78.3173 144.826 78.5258 146.152C78.7343 147.478 78.416 148.833 77.639 149.928C76.8619 151.023 75.6876 151.771 74.3668 152.011C73.046 152.252 71.6834 151.967 70.57 151.217C69.4583 150.428 68.7056 149.229 68.4774 147.885C68.2491 146.541 68.5641 145.161 69.353 144.049Z" fill="#BDBEC0"/>
<path d="M77.2691 128.126C77.8698 127.28 78.6314 126.56 79.5103 126.008C80.3891 125.456 81.3681 125.082 82.3913 124.909C83.4145 124.735 84.4619 124.765 85.4737 124.996C86.4855 125.227 87.4418 125.655 88.2881 126.256C89.1344 126.857 89.8541 127.618 90.4061 128.497C90.9581 129.376 91.3315 130.355 91.5052 131.378C91.6788 132.401 91.6492 133.449 91.4181 134.461C91.187 135.472 90.7588 136.429 90.1581 137.275C88.9306 138.948 87.0948 140.07 85.0468 140.401C82.9987 140.732 80.9025 140.245 79.2108 139.044C77.519 137.843 76.3672 136.025 76.004 133.983C75.6407 131.94 76.0951 129.836 77.2691 128.126Z" fill="#BDBEC0"/>
<path d="M85.0162 125.895L89.7062 129.223L76.8902 147.282L72.2002 143.952L85.0162 125.895Z" fill="#BDBEC0"/>
<path d="M108.905 140.909C106.722 143.985 105.631 145.522 103.997 145.8C102.364 146.077 100.826 144.986 97.7507 142.803L69.1533 122.506C66.0779 120.324 64.5402 119.232 64.2629 117.599C63.9856 115.965 65.077 114.428 67.2598 111.352L104.532 58.838C106.715 55.7626 107.806 54.2249 109.44 53.9476C111.073 53.6703 112.611 54.7617 115.686 56.9446L144.284 77.2426C147.359 79.4254 148.897 80.5168 149.174 82.1503C149.451 83.7838 148.36 85.3214 146.177 88.3968L108.905 140.909Z" fill="white"/>
<path d="M136.28 127.763L124.412 119.34L126.311 116.438L138.18 124.862L136.28 127.763Z" fill="#BDBEC0"/>
<path d="M122.318 147.21L110.45 138.787L112.381 136.066L124.249 144.489L122.318 147.21Z" fill="#BDBEC0"/>
<path d="M58.899 98.265L70.767 106.689L68.807 109.229L56.937 100.806L58.899 98.265Z" fill="#BDBEC0"/>
<path d="M72.8002 78.4579L84.6682 86.881L82.7681 89.7809L70.9001 81.3589L72.8002 78.4579Z" fill="#BDBEC0"/>
<path d="M161.307 92.496L149.439 84.074L151.369 81.353L163.237 89.777L161.307 92.496Z" fill="#BDBEC0"/>
<path d="M147.377 112.123L135.509 103.701L137.442 100.98L149.308 109.404L147.377 112.123Z" fill="#BDBEC0"/>
<path d="M83.9312 62.999L95.7992 71.423L93.8372 73.962L81.9692 65.538L83.9312 62.999Z" fill="#BDBEC0"/>
<path d="M97.8611 43.3719L109.728 51.795L107.767 54.335L95.8992 45.9109L97.8611 43.3719Z" fill="#BDBEC0"/>
<path d="M150.026 83.1682C141.864 94.6682 125.924 97.3732 114.424 89.2112C102.924 81.0482 100.219 65.1092 108.381 53.6092C116.543 42.1102 132.483 39.4042 143.983 47.5672C155.481 55.7282 158.188 71.6672 150.026 83.1682Z" fill="white"/>
<path d="M54.7373 181.21L54.0043 182.242L25.6953 162.15L26.4273 161.118L54.7373 181.21Z" fill="#BDBEC0"/>
<path d="M26.7274 162.887L25.6953 162.155L45.7893 133.845L46.8203 134.577L26.7274 162.887Z" fill="#BDBEC0"/>
<path d="M26.1673 162.257L25.9563 161.009L60.1803 155.199L60.3932 156.448L26.1673 162.257Z" fill="#BDBEC0"/>
<path d="M75.4683 153.247C72.8723 137.949 58.3653 127.655 43.0703 130.253L52.4743 185.645C67.7693 183.049 78.0653 168.544 75.4683 153.247Z" fill="white"/>
<path d="M25.4312 157.921C25.9218 157.831 26.4255 157.839 26.9129 157.945C27.4003 158.051 27.8617 158.253 28.2705 158.539C28.6792 158.825 29.0271 159.189 29.2938 159.611C29.5606 160.032 29.741 160.503 29.8245 160.994C29.9081 161.486 29.893 161.99 29.7804 162.476C29.6677 162.961 29.4597 163.42 29.1682 163.825C28.8768 164.23 28.5078 164.573 28.0828 164.834C27.6577 165.095 27.1851 165.269 26.6922 165.346C25.714 165.499 24.7151 165.26 23.9116 164.681C23.1081 164.103 22.5647 163.232 22.3989 162.256C22.2331 161.279 22.4583 160.277 23.0258 159.466C23.5934 158.655 24.4575 158.1 25.4312 157.921Z" fill="white"/>
</g>
<defs>
<filter id="filter0_ii_9_29" x="0.0581055" y="0.18396" width="245.093" height="194.393" filterUnits="userSpaceOnUse" color-interpolation-filters="sRGB">
<feFlood flood-opacity="0" result="BackgroundImageFix"/>
<feBlend mode="normal" in="SourceGraphic" in2="BackgroundImageFix" result="shape"/>
<feColorMatrix in="SourceAlpha" type="matrix" values="0 0 0 0 0 0 0 0 0 0 0 0 0 0 0 0 0 0 127 0" result="hardAlpha"/>
<feOffset dx="26" dy="4"/>
<feGaussianBlur stdDeviation="12.5"/>
<feComposite in2="hardAlpha" operator="arithmetic" k2="-1" k3="1"/>
<feColorMatrix type="matrix" values="0 0 0 0 1 0 0 0 0 1 0 0 0 0 1 0 0 0 0.7 0"/>
<feBlend mode="normal" in2="shape" result="effect1_innerShadow_9_29"/>
<feColorMatrix in="SourceAlpha" type="matrix" values="0 0 0 0 0 0 0 0 0 0 0 0 0 0 0 0 0 0 127 0" result="hardAlpha"/>
<feOffset dx="9" dy="4"/>
<feGaussianBlur stdDeviation="5"/>
<feComposite in2="hardAlpha" operator="arithmetic" k2="-1" k3="1"/>
<feColorMatrix type="matrix" values="0 0 0 0 0 0 0 0 0 0 0 0 0 0 0 0 0 0 0.25 0"/>
<feBlend mode="normal" in2="effect1_innerShadow_9_29" result="effect2_innerShadow_9_29"/>
</filter>
</defs>
</svg>
