<?xml version="1.0" encoding="UTF-8" standalone="no"?>
<svg
   xmlns:dc="http://purl.org/dc/elements/1.1/"
   xmlns:cc="http://creativecommons.org/ns#"
   xmlns:rdf="http://www.w3.org/1999/02/22-rdf-syntax-ns#"
   xmlns:svg="http://www.w3.org/2000/svg"
   xmlns="http://www.w3.org/2000/svg"
   xmlns:sodipodi="http://sodipodi.sourceforge.net/DTD/sodipodi-0.dtd"
   xmlns:inkscape="http://www.inkscape.org/namespaces/inkscape"
   sodipodi:docname="spaceship-window-view.svg"
   inkscape:version="1.0 (4035a4fb49, 2020-05-01)"
   id="svg23184"
   version="1.1"
   viewBox="0 0 232.79558 232.79488"
   height="232.79488mm"
   width="232.79558mm">
  <defs
     id="defs23178">
    <clipPath
       clipPathUnits="userSpaceOnUse"
       id="clipPath23244">
      <path
         d="M 0,660 H 660 V 0 H 0 Z"
         id="path23242" />
    </clipPath>
  </defs>
  <sodipodi:namedview
     inkscape:window-maximized="0"
     inkscape:window-y="8"
     inkscape:window-x="-2"
     inkscape:window-height="706"
     inkscape:window-width="1366"
     fit-margin-bottom="0"
     fit-margin-right="0"
     fit-margin-left="0"
     fit-margin-top="0"
     showgrid="false"
     inkscape:document-rotation="0"
     inkscape:current-layer="layer1"
     inkscape:document-units="mm"
     inkscape:cy="395.89394"
     inkscape:cx="442.59917"
     inkscape:zoom="0.34376219"
     inkscape:pageshadow="2"
     inkscape:pageopacity="0.0"
     borderopacity="1.0"
     bordercolor="#666666"
     pagecolor="#ffffff"
     id="base" />
  <metadata
     id="metadata23181">
    <rdf:RDF>
      <cc:Work
         rdf:about="">
        <dc:format>image/svg+xml</dc:format>
        <dc:type
           rdf:resource="http://purl.org/dc/dcmitype/StillImage" />
        <dc:title></dc:title>
      </cc:Work>
    </rdf:RDF>
  </metadata>
  <g
     transform="translate(20.214708,9.131621)"
     id="layer1"
     inkscape:groupmode="layer"
     inkscape:label="Layer 1">
    <path
       id="path23246"
       style="fill:#46454b;fill-opacity:1;fill-rule:evenodd;stroke:none;stroke-width:0.352778"
       d="M -20.214708,223.66325 H 212.58087 V -9.131621 H -20.214708 Z" />
    <path
       id="path23248"
       style="fill:#7f7e86;fill-opacity:1;fill-rule:evenodd;stroke:none;stroke-width:0.352778"
       d="m 15.821541,43.847133 h 80.325029 80.34302 c 5.85929,0 11.24197,4.207581 11.932,9.369778 1.70745,12.78255 3.48157,26.063574 5.31919,39.821202 1.91135,14.308317 3.90066,29.212117 5.96864,44.697297 0.88406,6.61388 -3.95428,12.10451 -10.72585,12.10451 H 96.141279 3.3198028 c -6.7722748,0 -11.5499442,-5.47017 -10.6662359,-12.08405 2.0672778,-15.48518 4.0601194,-30.39851 5.9728805,-44.717757 C 0.46583065,79.258966 2.2403028,65.978294 3.9473945,53.195744 4.6367222,48.034253 9.9619027,43.847133 15.821541,43.847133" />
    <path
       id="path23250"
       style="fill:#e4f3fc;fill-opacity:1;fill-rule:evenodd;stroke:none;stroke-width:0.352778"
       d="m 15.821541,43.847133 h 80.325029 80.34302 c 2.15618,0 4.24709,0.582789 6.0639,1.581503 0.0945,0.354189 0.14816,0.718256 0.21484,1.080911 4.98263,27.027364 8.58979,54.048373 12.1793,81.072213 0.84279,6.344 -3.77261,11.61097 -10.23267,11.61097 H 7.5908833 c -6.4611249,0 -11.0183081,-5.24615 -10.1758748,-11.59051 3.5909249,-27.03724 7.2019582,-54.071659 12.185297,-81.112781 0.067028,-0.365831 0.1213555,-0.732367 0.2166055,-1.090083 1.797756,-0.981428 3.865386,-1.552223 6.00463,-1.552223" />
    <path
       id="path23252"
       style="fill:#2d2b2d;fill-opacity:1;fill-rule:evenodd;stroke:none;stroke-width:0.352778"
       d="m 15.821541,43.847133 h 80.325029 80.34302 c 2.15618,0 4.24709,0.570089 6.0639,1.547284 0.0945,0.347133 0.16686,0.700616 0.21484,1.058333 l 10.59674,79.33937 c 0.82867,6.20712 -3.71264,11.36191 -10.06899,11.36191 H 96.143395 9.0101082 c -6.3567026,0 -10.8405081,-5.13433 -10.0118331,-11.34322 L 9.6003055,46.433347 c 0.047978,-0.361244 0.1213555,-0.71755 0.2166055,-1.067153 1.797756,-0.960261 3.865386,-1.519061 6.00463,-1.519061" />
    <path
       id="path23254"
       style="fill:#39373b;fill-opacity:1;fill-rule:evenodd;stroke:none;stroke-width:0.352778"
       d="m 168.23671,43.847133 -51.45088,93.306897 h 35.33034 L 186.54305,74.719422 182.76833,46.45275 c -0.048,-0.357717 -0.1203,-0.7112 -0.21484,-1.058333 -1.81681,-0.977195 -3.90772,-1.547284 -6.0639,-1.547284 z m -112.767533,0 H 96.14657 144.03756 L 92.58669,137.15403 H 9.0101082 c -1.6330083,0 -3.141486,-0.34008 -4.4693415,-0.94862 z" />
    <path
       id="path23256"
       style="fill:#454150;fill-opacity:1;fill-rule:evenodd;stroke:none;stroke-width:0.352778"
       d="m 189.59176,97.537441 3.77331,28.254679 c 0.82867,6.20783 -3.71264,11.36191 -10.06899,11.36191 H 96.143395 9.0101082 c -6.3567026,0 -10.8405081,-5.13433 -10.0118331,-11.34322 L 2.7744084,97.536029 C 27.294933,88.58888 60.111732,83.116591 96.181142,83.116591 c 36.071178,0 68.890088,5.472289 93.410618,14.42085" />
    <path
       id="path23258"
       style="fill:#564f67;fill-opacity:1;fill-rule:evenodd;stroke:none;stroke-width:0.352778"
       d="m 92.58669,137.15403 29.27632,-53.093053 c -8.32026,-0.619125 -16.90405,-0.944386 -25.681868,-0.944386 -23.933502,0 -46.434374,2.409825 -66.030473,6.645275 L 4.5407667,136.20541 c 1.3278555,0.60854 2.8363332,0.94862 4.4693415,0.94862 z m 59.52948,0 h -35.33034 l 27.88568,-50.571398 c 11.33863,1.683456 21.96359,3.940881 31.64628,6.681611 z" />
    <path
       id="path23260"
       style="fill:#77a9df;fill-opacity:1;fill-rule:evenodd;stroke:none;stroke-width:0.352778"
       d="m 191.14857,109.19428 2.2165,16.59784 c 0.82867,6.20783 -3.71264,11.36191 -10.06899,11.36191 H 96.143395 9.0101082 c -6.3567026,0 -10.8405081,-5.13433 -10.0118331,-11.34322 L 1.2179529,109.19287 C 22.872863,97.843299 57.348424,90.499877 96.181142,90.499877 c 38.835188,0 73.311808,7.343422 94.967428,18.694403" />
    <path
       id="path23262"
       style="fill:#85b5e4;fill-opacity:1;fill-rule:evenodd;stroke:none;stroke-width:0.352778"
       d="m 92.58669,137.15403 25.29522,-45.873456 c -7.0365,-0.511175 -14.28891,-0.780697 -21.700768,-0.780697 -26.922941,0 -51.750029,3.530953 -71.663629,9.47808 L 4.5407667,136.20541 c 1.3278555,0.60854 2.8363332,0.94862 4.4693415,0.94862 z m 59.52948,0 h -35.33034 l 23.8566,-43.263606 c 11.41342,1.816453 21.94348,4.312003 31.27199,7.358946 z" />
    <path
       id="path23264"
       style="fill:#6398d7;fill-opacity:1;fill-rule:evenodd;stroke:none;stroke-width:0.352778"
       d="m 192.44432,131.68562 c -1.60973,3.26284 -4.9904,5.46841 -9.14824,5.46841 H 96.143395 9.0101082 c -4.1528999,0 -7.5060526,-2.19216 -9.10131364,-5.44336 C 6.7054111,113.17467 47.215235,98.931266 96.181142,98.931266 c 48.943328,0 89.439038,14.229994 96.263178,32.754354" />
    <path
       id="path23266"
       style="fill:#71a4dd;fill-opacity:1;fill-rule:evenodd;stroke:none;stroke-width:0.352778"
       d="M 92.58669,137.15403 H 9.0101082 c -1.6330083,0 -3.141486,-0.33937 -4.4693415,-0.94862 L 15.904444,115.5986 c 17.527058,-10.06404 46.939199,-16.667334 80.276698,-16.667334 5.853998,0 11.584518,0.205316 17.153818,0.596194 z m 59.52948,0 h -35.33034 l 19.22957,-34.87279 c 11.58839,2.05141 21.97205,4.96923 30.61899,8.54393 z" />
    <path
       id="path23268"
       style="fill:#626169;fill-opacity:1;fill-rule:evenodd;stroke:none;stroke-width:0.352778"
       d="M -20.214708,223.66325 H 212.58087 V 170.66792 H -20.214708 Z" />
    <path
       id="path23270"
       style="fill:#9389a4;fill-opacity:1;fill-rule:evenodd;stroke:none;stroke-width:0.352778"
       d="M 189.6676,223.66325 H 2.6989139 L -1.3735526,210.0485 c -1.9127611,-6.3941 -3.9056027,-13.05278 -5.9728805,-19.96757 -0.8837083,-2.95311 3.8939611,-5.39539 10.6662359,-5.39539 H 96.141279 188.98357 c 6.77157,0 11.60991,2.45146 10.72585,5.40456 -2.06798,6.9148 -4.05729,13.56889 -5.96864,19.9584 z" />
    <path
       id="path23272"
       style="fill:#2d2b2d;fill-opacity:1;fill-rule:evenodd;stroke:none;stroke-width:0.352778"
       d="M -20.214708,19.062026 H 212.58087 V -9.1312682 H -20.214708 Z" />
    <path
       id="path23274"
       style="fill:#4172c1;fill-opacity:1;fill-rule:evenodd;stroke:none;stroke-width:0.352778"
       d="M -20.214708,21.966445 H 212.58087 V 19.062026 H -20.214708 Z" />
    <path
       id="path23276"
       style="fill:#4d78b3;fill-opacity:1;fill-rule:evenodd;stroke:none;stroke-width:0.352778"
       d="m 205.22228,107.19297 4.4771,33.94145 -1.1303,0.14746 -4.47675,-33.9418 z M -20.214708,160.4797 h 77.350407 l 5.069064,-2.92665 H 130.1614 l 5.06907,2.92665 h 77.3504 v 1.14264 h -77.64674 l -5.06871,-2.92629 H 62.50039 l -5.068358,2.92629 h -77.64674 z m 8.488539,-53.13962 -4.477103,33.9418 -1.129947,-0.14746 4.47675,-33.94145 z M 70.410726,32.334936 h 51.544364 v 1.143353 H 70.410726 Z M 39.123571,37.647417 34.23513,29.181103 H -6.9530858 L -12.6635,69.327566 -6.8514859,78.283183 -9.9820358,99.503118 H -20.214708 v -1.143 h 9.246306 L -8.0442275,78.538947 -13.852713,69.587211 C -11.897619,55.735744 -9.9157136,41.8871 -7.943333,28.03775 h 42.834982 l 5.218995,9.03852 z m 113.132299,-0.571147 5.21794,-9.03852 h 42.83534 c 1.97308,13.84935 3.95428,27.697994 5.90938,41.549461 l -5.80884,8.951736 2.92417,19.821171 h 9.24701 v 1.143 H 202.3482 l -3.1302,-21.219935 5.81096,-8.955617 -5.71041,-40.146463 h -41.18787 l -4.88773,8.466314 z" />
    <path
       id="path23278"
       style="fill:#ffffff;fill-opacity:1;fill-rule:evenodd;stroke:none;stroke-width:0.352778"
       d="m 29.279308,57.84218 0.221191,1.416403 1.416403,0.221545 -1.416403,0.220838 -0.221191,1.416403 -0.221545,-1.416403 -1.41605,-0.220838 1.41605,-0.221545 z" />
    <path
       id="path23280"
       style="fill:#ffffff;fill-opacity:1;fill-rule:evenodd;stroke:none;stroke-width:0.352778"
       d="m 58.951446,53.536528 0.118181,0.756002 0.756355,0.117828 -0.756355,0.118181 -0.118181,0.756002 -0.117122,-0.756002 -0.756356,-0.118181 0.756356,-0.117828 z" />
    <path
       id="path23282"
       style="fill:#ffffff;fill-opacity:1;fill-rule:evenodd;stroke:none;stroke-width:0.352778"
       d="m 139.4197,76.824094 0.22119,1.416403 1.41676,0.221544 -1.41676,0.220486 -0.22119,1.416403 -0.22048,-1.416403 -1.41641,-0.220486 1.41641,-0.221544 z" />
    <path
       id="path23284"
       style="fill:#ffffff;fill-opacity:1;fill-rule:evenodd;stroke:none;stroke-width:0.352778"
       d="m 147.42388,55.284541 0.22084,1.416403 1.41605,0.221192 -1.41605,0.221192 -0.22084,1.41605 -0.22119,-1.41605 -1.41641,-0.221192 1.41641,-0.221192 z" />
    <path
       id="path23286"
       style="fill:#ffffff;fill-opacity:1;fill-rule:evenodd;stroke:none;stroke-width:0.352778"
       d="m 20.525127,76.824094 0.220839,1.416403 1.41605,0.221544 -1.41605,0.220486 -0.220839,1.416403 -0.221191,-1.416403 -1.416403,-0.220486 1.416403,-0.221544 z" />
    <path
       id="path23288"
       style="fill:#ffffff;fill-opacity:1;fill-rule:evenodd;stroke:none;stroke-width:0.352778"
       d="m 179.97997,71.147899 0.22049,1.41605 1.4164,0.221545 -1.4164,0.220486 -0.22049,1.416403 -0.22119,-1.416403 -1.41675,-0.220486 1.41675,-0.221545 z" />
    <path
       id="path23290"
       style="fill:#ffffff;fill-opacity:1;fill-rule:evenodd;stroke:none;stroke-width:0.352778"
       d="m 111.21759,70.458572 0.11818,0.756355 0.75494,0.118181 -0.75494,0.11818 -0.11818,0.756003 -0.11818,-0.756003 -0.75636,-0.11818 0.75636,-0.118181 z" />
    <path
       id="path23292"
       style="fill:#ffffff;fill-opacity:1;fill-rule:evenodd;stroke:none;stroke-width:0.352778"
       d="m 33.039213,73.787383 0.118181,0.756355 0.756355,0.118181 -0.756355,0.11818 -0.118181,0.756003 -0.11818,-0.756003 -0.756356,-0.11818 0.756356,-0.118181 z" />
    <path
       id="path23294"
       style="fill:#ffffff;fill-opacity:1;fill-rule:evenodd;stroke:none;stroke-width:0.352778"
       d="m 131.89213,51.788514 0.11818,0.75565 0.75636,0.11818 -0.75636,0.118181 -0.11818,0.756003 -0.11818,-0.756003 -0.7553,-0.118181 0.7553,-0.11818 z" />
    <path
       id="path23296"
       style="fill:#ffffff;fill-opacity:1;fill-rule:evenodd;stroke:none;stroke-width:0.352778"
       d="m 164.00725,81.368577 0.11819,0.756356 0.756,0.117475 -0.756,0.117827 -0.11819,0.756356 -0.11818,-0.756356 -0.75635,-0.117827 0.75635,-0.117475 z" />
    <path
       id="path23298"
       style="fill:#ffffff;fill-opacity:1;fill-rule:evenodd;stroke:none;stroke-width:0.352778"
       d="m 91.747784,60.248125 0.220486,1.41605 1.416403,0.221191 -1.416403,0.220839 -0.220486,1.416403 -0.221191,-1.416403 -1.416403,-0.220839 1.416403,-0.221191 z" />
  </g>
</svg>
