<svg width="523" height="454" viewBox="0 0 523 454" fill="none" xmlns="http://www.w3.org/2000/svg">
<g clip-path="url(#clip0_18_5)" filter="url(#filter0_ii_18_5)">
<mask id="mask0_18_5" style="mask-type:luminance" maskUnits="userSpaceOnUse" x="271" y="51" width="175" height="187">
<path d="M332.898 121.907L341.246 192.052L271.68 204.324L316.196 237.389L385.775 225.127L377.414 154.972L332.898 121.907ZM429.865 84.3564L445.39 214.608L405.638 221.614L385.35 51.2911L429.865 84.3564V84.3564Z" fill="white"/>
</mask>
<g mask="url(#mask0_18_5)">
<path d="M385.762 225.117L346.023 232.133L332.898 121.907L377.414 154.972L385.762 225.117Z" fill="#39CEFD"/>
</g>
<mask id="mask1_18_5" style="mask-type:luminance" maskUnits="userSpaceOnUse" x="271" y="51" width="175" height="187">
<path d="M332.898 121.907L341.246 192.052L271.68 204.324L316.196 237.389L385.775 225.127L377.414 154.972L332.898 121.907ZM429.865 84.3564L445.39 214.608L405.638 221.614L385.35 51.2911L429.865 84.3564V84.3564Z" fill="white"/>
</mask>
<g mask="url(#mask1_18_5)">
<path d="M429.865 84.3564L385.35 51.2911L405.638 221.614L445.39 214.608L429.865 84.3564Z" fill="#39CEFD"/>
</g>
<mask id="mask2_18_5" style="mask-type:luminance" maskUnits="userSpaceOnUse" x="271" y="51" width="175" height="187">
<path d="M332.898 121.907L341.246 192.052L271.68 204.324L316.196 237.389L385.775 225.127L377.414 154.972L332.898 121.907ZM429.865 84.3564L445.39 214.608L405.638 221.614L385.35 51.2911L429.865 84.3564V84.3564Z" fill="white"/>
</mask>
<g mask="url(#mask2_18_5)">
<path d="M346.023 232.133L316.207 237.374L271.691 204.309L341.245 192.051L346.023 232.133Z" fill="#03569B"/>
</g>
<mask id="mask3_18_5" style="mask-type:luminance" maskUnits="userSpaceOnUse" x="271" y="51" width="175" height="187">
<path d="M332.898 121.907L341.246 192.052L271.68 204.324L316.196 237.389L385.775 225.127L377.414 154.972L332.898 121.907ZM429.865 84.3564L445.39 214.608L405.638 221.614L385.35 51.2911L429.865 84.3564V84.3564Z" fill="white"/>
</mask>
<g mask="url(#mask3_18_5)">
<path d="M321.986 195.509L341.245 192.051L346.023 232.133L321.986 195.509Z" fill="url(#paint0_linear_18_5)"/>
</g>
<mask id="mask4_18_5" style="mask-type:luminance" maskUnits="userSpaceOnUse" x="271" y="51" width="175" height="187">
<path d="M332.898 121.907L341.246 192.052L271.68 204.324L316.196 237.389L385.775 225.127L377.414 154.972L332.898 121.907ZM429.865 84.3564L445.39 214.608L405.638 221.614L385.35 51.2911L429.865 84.3564V84.3564Z" fill="white"/>
</mask>
<g mask="url(#mask4_18_5)">
<path d="M385.77 225.11L380.992 185.028L341.237 192.033L346.016 232.116L385.77 225.11Z" fill="#16B9FD"/>
</g>
<path d="M332.898 121.907L341.246 192.052L271.68 204.324L316.196 237.389L385.775 225.127L377.414 154.972L332.898 121.907ZM429.865 84.3564L445.39 214.608L405.638 221.614L385.35 51.2911L429.865 84.3564Z" fill="url(#paint1_radial_18_5)"/>
<path d="M20.8704 160.231C55.2005 144.366 120.602 133.537 185.386 181.333C218.351 205.654 185.386 181.333 277.387 249.213C307.781 273.429 321.982 238.165 316.304 214.071C310.625 189.977 308.808 212.931 318.965 199.401C329.121 185.87 357.591 224.857 342.29 249.314C326.989 273.771 347.205 267.628 306.695 280.88C280.105 288.827 269.104 288.399 241.641 282.114C229.955 278.419 195.959 268.044 123.235 238.514C96.6102 231.294 86.0535 231.089 32.2084 236.871C32.6385 235.23 31.9001 231.705 31.3131 225.539C17.2182 217.033 12.7535 212.158 10.0285 199.401C13.208 188.019 3.6847 193.612 25.0999 185.352C38.9907 181.247 -4.27648 171.851 20.8704 160.231Z" fill="#47BD71"/>
<ellipse cx="20.967" cy="12.7155" rx="20.967" ry="12.7155" transform="matrix(0.771747 0.596715 -0.692878 0.752264 242.783 216.301)" fill="#39AA61"/>
<ellipse cx="9.01495" cy="4.92197" rx="9.01495" ry="4.92197" transform="matrix(0.76067 0.611009 -0.707659 0.737874 248.27 228.041)" fill="#439658"/>
<ellipse cx="25.4731" cy="15.5525" rx="25.4731" ry="15.5525" transform="matrix(0.754361 0.618933 -0.670833 0.772592 194.572 182.607)" fill="#39AA61"/>
<ellipse cx="10.9637" cy="6.01269" rx="10.9637" ry="6.01269" transform="matrix(0.742803 0.633064 -0.686038 0.758712 201.101 197.383)" fill="#439658"/>
<ellipse cx="29.9737" cy="19.5632" rx="29.9737" ry="19.5632" transform="matrix(0.84024 0.495272 -0.540106 0.870126 129.036 154.685)" fill="#39AA61"/>
<ellipse cx="12.9054" cy="7.55961" rx="12.9054" ry="7.55961" transform="matrix(0.830098 0.511962 -0.556386 0.85984 139.016 171.211)" fill="#439658"/>
<ellipse cx="35.0853" cy="25.1302" rx="35.0853" ry="25.1302" transform="matrix(0.935787 0.286886 -0.432609 0.927132 50.8296 146.605)" fill="#39AA61"/>
<ellipse cx="15.0747" cy="9.72749" rx="15.0747" ry="9.72749" transform="matrix(0.928846 0.306987 -0.448425 0.919849 65.1687 163.191)" fill="#439658"/>
<path d="M291.36 273.442C268.305 280.327 242.689 259.098 205.832 242.962C171.268 227.83 133.174 220.384 112.355 220.906C69.3364 221.985 39.9507 234.533 39.9507 234.533L41.6214 326.282C41.6214 326.282 55.1241 316.812 67.9609 309.702C80.7976 302.592 88.0366 293.601 145.625 290.095C203.214 286.589 236.189 317.93 277.85 323.484C319.512 329.037 333.656 301.514 341.51 290.095C349.365 278.675 355.038 236.188 346.922 214.839C342.846 204.12 336.944 190.944 330.009 187.583C318.042 181.783 300.568 185.821 296.53 193.236C292.492 200.652 304.681 202.265 310.589 214.839C316.497 227.413 314.416 266.557 291.36 273.442Z" fill="#4C7049"/>
<path d="M131.549 221.413C153.392 236.607 162.66 246.687 175.161 266.505C202.644 317.898 205.83 339.208 242.642 374.113C267.104 392.222 303.811 387.527 312.782 383.378C321.753 379.229 321.657 380.447 334.593 374.544C347.529 368.642 331.211 396.834 309.946 408.929C288.681 421.023 272.064 427.745 238.22 419.278C216.333 413.129 208.898 407.663 192.612 389.918C186.127 381.565 167.097 357.558 129.589 300.436C114.291 282.346 107.067 277.264 67.2412 256.706C68.2547 255.616 69.2799 252.501 71.5619 247.379C65.5058 234.12 64.5379 228.206 68.2127 216.906C75.3782 209.44 83.6734 207.385 102.112 210.875C113.525 214.124 117.886 212.468 131.549 221.413Z" fill="#47BD71"/>
<ellipse cx="189.78" cy="314.779" rx="28.9329" ry="19.2221" transform="rotate(56.8733 189.78 314.779)" fill="#39AA61"/>
<ellipse cx="235.581" cy="372.841" rx="24.8065" ry="14.9037" transform="rotate(29.8245 235.581 372.841)" fill="#39AA61"/>
<ellipse cx="298.13" cy="390.25" rx="20.562" ry="10.7833" transform="rotate(-11.3298 298.13 390.25)" fill="#39AA61"/>
<ellipse cx="146.047" cy="248.801" rx="35.0504" ry="22.6188" transform="rotate(46.1827 146.047 248.801)" fill="#3EAA65"/>
<ellipse cx="149.987" cy="246.481" rx="13.854" ry="9.07941" transform="rotate(53.0428 149.987 246.481)" fill="#3F9154"/>
<ellipse cx="192.31" cy="313.61" rx="12.462" ry="7.4249" transform="rotate(57.9853 192.31 313.61)" fill="#439658"/>
<ellipse cx="236.501" cy="372.029" rx="12.0113" ry="6.80835" transform="rotate(32.1284 236.501 372.029)" fill="#439658"/>
<ellipse cx="297.891" cy="388.688" rx="8.96248" ry="4.4042" transform="rotate(-11.0777 297.891 388.688)" fill="#439658"/>
<path d="M317.662 278.912C321.278 279.279 324.607 281.586 326.137 284.81L350.089 333.432C351.59 336.47 351.366 340.267 349.427 343.004L319.389 386.169C317.409 389.048 313.726 390.524 310.241 390.054L256.604 384.534C254.78 384.33 253.035 383.646 251.551 382.552C250.066 381.458 248.897 379.995 248.164 378.314L241.127 363.64C240.657 362.626 240.023 361.639 239.986 360.497C240.935 360.19 241.873 360.719 242.79 360.93C244.759 361.55 246.777 361.806 248.833 362.022C249.386 362.027 249.779 362.443 249.977 362.923L255.975 375.44C256.404 376.332 257.488 376.303 258.328 376.389L311 381.802C311.625 381.905 312.224 381.6 312.536 381.068L342.286 338.319C342.738 337.78 342.767 337.022 342.399 336.419L318.619 288.202C318.502 287.896 318.294 287.631 318.024 287.442C317.754 287.253 317.434 287.149 317.106 287.144L263.655 281.682C262.971 281.553 262.252 281.821 261.917 282.442L232.168 325.191C231.771 325.665 231.713 326.331 232.034 326.878L238.369 339.758C239.594 342.128 241.569 344.358 244.224 345.09C245.397 345.394 246.629 345.337 247.755 344.925C248.881 344.514 249.847 343.768 250.524 342.787L280.105 300.301C280.498 299.639 281.467 299.54 282.045 300.037L287 303.485C287.663 303.923 287.703 304.957 287.174 305.529L257.407 348.284C254.766 352.085 250.301 355.109 245.421 354.48C239.45 353.646 234.321 349.379 231.457 344.192L224.557 330.468C222.839 327.375 223.011 323.394 225.021 320.541L255.06 277.376C256.047 275.981 257.397 274.88 258.969 274.187C260.541 273.495 262.279 273.236 264.002 273.438L317.662 278.912ZM308.066 316.646C313.918 320.244 319.87 324.547 323.042 330.793C325.512 335.606 324.642 341.493 321.737 345.821C321.226 346.32 320.39 346.213 319.859 345.781C318.231 344.644 316.577 343.531 314.963 342.36C314.251 341.902 314.286 340.997 314.616 340.334C315.571 337.961 315.842 335.146 314.567 332.792C312.585 329.216 309.04 326.858 305.732 324.603C303.244 323.061 300.525 321.468 297.533 321.437C295.238 321.396 293.274 323.218 292.67 325.275C292.339 326.863 293.509 328.261 294.433 329.444C300.009 335.907 307.294 340.768 312.381 347.663C314.485 350.513 315.917 354.205 314.893 357.693C313.486 362.342 309.793 366.502 304.927 367.634C300.953 368.589 296.781 367.66 292.999 366.176C288.03 364.118 283.542 361.028 279.458 357.56C275.662 354.234 272.117 350.192 270.853 345.231C269.745 341.024 270.932 336.496 273.483 333.108C273.925 332.543 274.806 332.549 275.35 332.998L280.239 336.401C280.929 336.814 281.024 337.706 280.634 338.336C279.602 340.466 278.902 343.064 279.858 345.389C281.729 349.834 286.027 352.606 289.811 355.33C293.078 357.399 296.667 359.835 300.691 359.579C302.877 359.359 304.642 357.678 305.448 355.733C306.04 354.028 304.946 352.284 303.969 350.907C298.716 344.167 290.922 339.863 285.927 332.893C283.884 330.086 282.508 326.509 283.363 323.075C284.589 318.233 288.56 313.939 293.648 313.114C298.618 312.23 303.706 314.096 308.061 316.528L308.066 316.646Z" fill="#8CC84B"/>
<path d="M365.583 276.147C360.765 278.365 354.425 289.196 349.381 303.756C345.68 314.214 344.93 317.872 343.786 330.652C342.045 349.431 340.466 357.589 336.822 368.504C328.156 394.53 311.859 411.318 287.932 418.868C267.83 425.157 250.105 424.114 228.556 415.398C204.715 405.762 190.489 391.138 172.264 357.011C161.922 337.878 156.269 328.904 146.327 316.341C129.079 294.546 108.396 277.529 83.3786 264.752C66.5085 256.058 67.5621 257.084 70.1251 251.998C72.1859 247.715 72.1292 247.26 69.4046 239.866C66.2761 231.459 65.568 225.76 67.0759 221.499C68.4467 217.626 72.1035 213.145 75.1883 211.512C79.2253 209.345 89.8612 208.86 96.0041 210.598C98.9787 211.433 101.8 211.777 102.262 211.396C103.454 210.183 79.1354 200.051 75.3963 200.145C73.7377 200.211 70.328 201.838 67.8871 203.807C56.8746 212.44 55.6888 220.411 63.047 235.655C65.2096 240.016 66.6598 244.234 66.3171 245.203C66.0087 246.074 61.772 248.497 56.829 250.453C46.4808 254.745 43.1443 257.705 40.7052 264.905C38.2719 271.78 39.1172 277.092 44.0177 286.345C46.2488 290.512 47.8361 294.343 47.6305 294.924C47.3906 295.602 44.4027 297.268 40.9305 298.764C32.2187 302.436 27.6676 306.056 24.1867 311.58C20.7341 317.332 21.0352 318.637 26.0335 318.989C32.2628 319.559 53.9463 324.509 61.5021 327.183C80.3914 333.868 101.984 345.542 116.755 357.089C125.823 364.112 140.631 378.942 147.618 387.843C156.985 399.875 175.798 417.865 188.82 427.268C213.389 445.008 232.774 453.067 255.679 455.18C308.203 460.148 353.605 431.65 371.106 382.816C377.891 363.643 378.484 349.033 373.578 324.088C370.687 309.771 370.704 303.566 373.46 291.466C375.57 282.732 375.599 281.108 374.051 278.708C371.745 275.059 369.289 274.299 365.583 276.147Z" fill="#4C7049"/>
<path d="M229.345 371.951L230.597 369.784C230.597 369.784 241.401 372.609 243.153 368.516C246.798 366.415 371.104 398.542 241.121 379.245C240.663 377.097 239.444 375.252 237.719 374.097C235.016 373.067 232.209 372.347 229.345 371.951Z" fill="url(#paint2_linear_18_5)"/>
<path d="M239.56 375.642C242.432 382.848 247.176 388.955 253.24 393.253C259.304 397.551 266.44 399.864 273.818 399.923C293.434 399.65 302.036 390.251 304.635 389.625C306.318 388.956 308.049 388.452 309.806 388.122L257.895 377.023C257.895 377.023 242.503 371.585 239.56 375.642Z" fill="url(#paint3_linear_18_5)"/>
<path d="M239.978 370.703C239.978 370.703 256.306 354.454 277.159 360.435C283.498 362.009 289.401 365.042 294.468 369.328C299.535 373.615 303.649 379.056 306.531 385.284C306.872 386.012 307.364 386.642 307.971 387.127C308.578 387.611 309.284 387.937 310.036 388.08C307.416 388.72 274.768 380.967 270.916 380.207C255.931 377.249 242.478 372.685 239.978 370.703Z" fill="url(#paint4_linear_18_5)"/>
</g>
<defs>
<filter id="filter0_ii_18_5" x="0.723877" y="-11.5" width="525" height="487" filterUnits="userSpaceOnUse" color-interpolation-filters="sRGB">
<feFlood flood-opacity="0" result="BackgroundImageFix"/>
<feBlend mode="normal" in="SourceGraphic" in2="BackgroundImageFix" result="shape"/>
<feColorMatrix in="SourceAlpha" type="matrix" values="0 0 0 0 0 0 0 0 0 0 0 0 0 0 0 0 0 0 127 0" result="hardAlpha"/>
<feOffset dx="3" dy="26"/>
<feGaussianBlur stdDeviation="11"/>
<feComposite in2="hardAlpha" operator="arithmetic" k2="-1" k3="1"/>
<feColorMatrix type="matrix" values="0 0 0 0 0 0 0 0 0 0 0 0 0 0 0 0 0 0 0.33 0"/>
<feBlend mode="normal" in2="shape" result="effect1_innerShadow_18_5"/>
<feColorMatrix in="SourceAlpha" type="matrix" values="0 0 0 0 0 0 0 0 0 0 0 0 0 0 0 0 0 0 127 0" result="hardAlpha"/>
<feOffset dy="-12"/>
<feGaussianBlur stdDeviation="9"/>
<feComposite in2="hardAlpha" operator="arithmetic" k2="-1" k3="1"/>
<feColorMatrix type="matrix" values="0 0 0 0 1 0 0 0 0 1 0 0 0 0 1 0 0 0 0.13 0"/>
<feBlend mode="normal" in2="effect1_innerShadow_18_5" result="effect2_innerShadow_18_5"/>
</filter>
<linearGradient id="paint0_linear_18_5" x1="336.15" y1="231.85" x2="330.941" y2="202.289" gradientUnits="userSpaceOnUse">
<stop stop-color="#1A237E" stop-opacity="0.4"/>
<stop offset="1" stop-color="#1A237E" stop-opacity="0"/>
</linearGradient>
<radialGradient id="paint1_radial_18_5" cx="0" cy="0" r="1" gradientUnits="userSpaceOnUse" gradientTransform="translate(491.189 146.091) rotate(-143.396) scale(220.546 233.213)">
<stop stop-color="white" stop-opacity="0.1"/>
<stop offset="1" stop-color="white" stop-opacity="0"/>
</radialGradient>
<linearGradient id="paint2_linear_18_5" x1="272.316" y1="365.373" x2="256.536" y2="389.454" gradientUnits="userSpaceOnUse">
<stop offset="0.231" stop-color="#999875"/>
<stop offset="0.563" stop-color="#9B9977"/>
<stop offset="0.683" stop-color="#A09F7E"/>
<stop offset="0.768" stop-color="#A9A889"/>
<stop offset="0.837" stop-color="#B7B69A"/>
<stop offset="0.896" stop-color="#C9C7B0"/>
<stop offset="0.948" stop-color="#DEDDCB"/>
<stop offset="0.994" stop-color="#F8F6EB"/>
<stop offset="1" stop-color="#FBF9EF"/>
</linearGradient>
<linearGradient id="paint3_linear_18_5" x1="310.993" y1="384.673" x2="240.201" y2="378.944" gradientUnits="userSpaceOnUse">
<stop stop-color="#48A547"/>
<stop offset="1" stop-color="#3F9143"/>
</linearGradient>
<linearGradient id="paint4_linear_18_5" x1="275.448" y1="358.316" x2="279.576" y2="392.185" gradientUnits="userSpaceOnUse">
<stop stop-color="#41A247"/>
<stop offset="0.352" stop-color="#4BA74B"/>
<stop offset="0.956" stop-color="#67B554"/>
<stop offset="1" stop-color="#69B655"/>
</linearGradient>
<clipPath id="clip0_18_5">
<rect width="522" height="453" fill="white" transform="translate(0.723877 0.5)"/>
</clipPath>
</defs>
</svg>
