<svg width="522" height="422" viewBox="0 0 522 422" fill="none" xmlns="http://www.w3.org/2000/svg">
<g filter="url(#filter0_ii_18_5)">
<path d="M187.061 191.64C212.721 198.676 224.82 205.086 243.217 219.598C286.271 258.877 296.385 277.904 342.733 298.527C371.836 307.437 404.873 290.765 411.945 283.86C419.018 276.956 419.334 278.136 429.56 268.256C439.785 258.376 433.808 290.397 417.797 308.893C401.785 327.389 388.363 339.27 353.633 342.579C330.949 344.085 322.116 341.413 300.843 330.118C291.942 324.407 265.994 308.125 211.577 266.789C191.121 254.839 182.614 252.458 138.212 246.365C138.804 245 138.731 241.721 139.173 236.132C129.04 225.653 126.155 220.401 125.849 208.522C130.113 199.093 137.247 194.388 155.794 191.526C167.637 190.781 171.195 187.765 187.061 191.64Z" fill="#47BD71"/>
<ellipse cx="273.104" cy="260.228" rx="28.9329" ry="19.2221" transform="rotate(37.3841 273.104 260.228)" fill="#39AA61"/>
<ellipse cx="335.652" cy="299.684" rx="24.8065" ry="14.9037" transform="rotate(10.3353 335.652 299.684)" fill="#39AA61"/>
<ellipse cx="400.426" cy="295.227" rx="20.562" ry="10.7833" transform="rotate(-30.8189 400.426 295.227)" fill="#39AA61"/>
<path d="M425.946 165.157C422.144 168.855 419.781 181.182 419.883 196.59C419.883 207.684 420.397 211.382 423.583 223.811C428.207 242.095 429.44 250.313 429.645 261.818C430.159 289.244 420.397 310.508 400.36 325.608C383.508 338.242 366.45 343.173 343.227 342.146C317.539 341.016 299.248 331.976 270.682 305.885C254.549 291.299 246.226 284.725 232.662 276.199C209.131 261.407 183.956 252.265 156.109 248.567C137.305 245.999 138.64 246.615 139.36 240.965C139.874 236.24 139.668 235.829 134.633 229.769C128.879 222.887 126.31 217.75 126.31 213.231C126.31 209.122 128.262 203.678 130.626 201.11C133.708 197.72 143.573 193.714 149.944 193.303C153.026 193.097 155.801 192.481 156.109 191.968C156.828 190.427 130.523 188.989 127.029 190.324C125.488 190.94 122.816 193.611 121.172 196.282C113.671 208.095 115.212 216.004 127.235 227.92C130.728 231.31 133.503 234.802 133.503 235.829C133.503 236.754 130.317 240.452 126.31 243.944C117.987 251.443 115.829 255.346 115.931 262.948C115.931 270.241 118.5 274.966 126.207 282.054C129.701 285.238 132.475 288.32 132.475 288.936C132.475 289.655 130.214 292.223 127.44 294.791C120.453 301.16 117.37 306.091 115.931 312.459C114.596 319.033 115.315 320.163 120.144 318.828C126.207 317.287 148.3 314.719 156.314 314.719C176.352 314.719 200.602 318.52 218.379 324.478C229.271 328.073 248.178 337.112 257.735 343.173C270.579 351.391 294.316 362.074 309.729 366.593C338.809 375.119 359.771 376.249 382.069 370.599C433.242 357.759 466.535 315.746 466.74 263.872C466.74 243.533 462.424 229.563 449.477 207.684C441.976 195.152 439.921 189.297 438.482 176.97C437.557 168.033 437.044 166.493 434.783 164.746C431.392 162.076 428.823 162.178 425.946 165.157Z" fill="#4C7049"/>
<ellipse cx="209.865" cy="212.622" rx="35.0504" ry="22.6188" transform="rotate(26.6936 209.865 212.622)" fill="#3EAA65"/>
<ellipse cx="212.805" cy="209.12" rx="13.854" ry="9.07941" transform="rotate(33.5537 212.805 209.12)" fill="#3F9154"/>
<ellipse cx="275.1" cy="258.282" rx="12.462" ry="7.4249" transform="rotate(38.4962 275.1 258.282)" fill="#439658"/>
<ellipse cx="336.249" cy="298.612" rx="12.0113" ry="6.80835" transform="rotate(12.6393 336.249 298.612)" fill="#439658"/>
<ellipse cx="399.679" cy="293.834" rx="8.96249" ry="4.4042" transform="rotate(-30.5668 399.679 293.834)" fill="#439658"/>
</g>
<defs>
<filter id="filter0_ii_18_5" x="0" y="-12" width="525" height="487" filterUnits="userSpaceOnUse" color-interpolation-filters="sRGB">
<feFlood flood-opacity="0" result="BackgroundImageFix"/>
<feBlend mode="normal" in="SourceGraphic" in2="BackgroundImageFix" result="shape"/>
<feColorMatrix in="SourceAlpha" type="matrix" values="0 0 0 0 0 0 0 0 0 0 0 0 0 0 0 0 0 0 127 0" result="hardAlpha"/>
<feOffset dx="3" dy="26"/>
<feGaussianBlur stdDeviation="11"/>
<feComposite in2="hardAlpha" operator="arithmetic" k2="-1" k3="1"/>
<feColorMatrix type="matrix" values="0 0 0 0 0 0 0 0 0 0 0 0 0 0 0 0 0 0 0.33 0"/>
<feBlend mode="normal" in2="shape" result="effect1_innerShadow_18_5"/>
<feColorMatrix in="SourceAlpha" type="matrix" values="0 0 0 0 0 0 0 0 0 0 0 0 0 0 0 0 0 0 127 0" result="hardAlpha"/>
<feOffset dy="-12"/>
<feGaussianBlur stdDeviation="9"/>
<feComposite in2="hardAlpha" operator="arithmetic" k2="-1" k3="1"/>
<feColorMatrix type="matrix" values="0 0 0 0 1 0 0 0 0 1 0 0 0 0 1 0 0 0 0.13 0"/>
<feBlend mode="normal" in2="effect1_innerShadow_18_5" result="effect2_innerShadow_18_5"/>
</filter>
</defs>
</svg>
