<svg width="285" height="283" viewBox="0 0 285 283" fill="none" xmlns="http://www.w3.org/2000/svg">
<path d="M82.3947 42.7012L82.3947 42.7012C80.2147 22.4003 94.9043 4.17726 115.205 1.99723C135.506 -0.182802 153.73 14.5068 155.91 34.8077C158.089 55.1086 143.4 73.3326 123.099 75.5126C102.799 77.6917 84.5737 63.002 82.3947 42.7012Z" fill="#81C6C6" stroke="white" stroke-width="2"/>
<path d="M247.224 57.9943C248.445 69.3663 207.911 91.2773 127.696 99.8903C58.3006 107.341 3.23958 95.8973 1.99658 84.3253C0.293576 68.4573 53.8076 49.7003 121.526 42.4293C189.244 35.1583 245.52 42.1263 247.224 57.9943Z" fill="#072228"/>
<path d="M7.27368 89.7933C11.3377 86.6803 15.5917 83.8143 19.9807 81.1643C24.4087 78.5853 28.9067 76.1043 33.5617 73.9443C42.8507 69.5773 52.5057 66.0133 62.3277 63.0403C72.1477 60.0403 82.1727 57.7723 92.2457 55.8353C102.33 53.9273 112.5 52.5483 122.686 51.3553C132.899 50.3743 143.138 49.6313 153.399 49.4383C163.655 49.2753 173.927 49.4153 184.158 50.2293C194.386 51.0323 204.579 52.3623 214.634 54.4103C217.134 54.9893 219.642 55.5323 222.123 56.1773C224.595 56.8673 227.084 57.4863 229.512 58.3223C231.969 59.0583 234.356 60.0093 236.747 60.9293L240.237 62.5433C241.374 63.1343 242.473 63.7973 243.589 64.4193C239.128 61.8913 234.25 60.2523 229.357 58.8293C226.919 58.0683 224.421 57.5243 221.944 56.9113C219.457 56.3423 216.945 55.8753 214.444 55.3723C204.402 53.5293 194.24 52.3763 184.051 51.7633C173.858 51.1963 163.648 51.0013 153.442 51.2573C143.235 51.5083 133.053 52.3153 122.899 53.3413C112.751 54.4693 102.619 55.7823 92.5767 57.6223C82.5376 59.4607 72.5881 61.7588 62.7597 64.5093C52.9427 67.2863 43.2897 70.6703 33.9687 74.8303C29.2757 76.8423 24.7317 79.1803 20.2447 81.6203C15.8057 84.1473 11.4647 86.8533 7.27368 89.7933Z" fill="#174F50"/>
<path d="M183.567 84.2434C184.133 89.5204 165.325 99.6874 128.103 103.683C95.9027 107.141 70.3537 101.83 69.7767 96.4614C68.9857 89.0984 93.8177 80.3944 125.24 77.0204C156.663 73.6474 182.776 76.8804 183.567 84.2434Z" fill="#8FAD77"/>
<path d="M168.719 88.0163C169.04 91.0143 155.073 97.1423 127.717 100.079C104.051 102.62 85.4157 100.046 85.0887 96.9963C84.6387 92.8133 102.997 87.4123 126.091 84.9333C149.184 82.4533 168.27 83.8333 168.719 88.0163Z" fill="#B1C681"/>
<path d="M247.694 56.0563C240.475 47.2413 208.553 12.9993 119.394 22.5733C34.4347 31.6953 4.95069 73.3293 0.877686 82.9883C10.2587 76.4913 46.8767 50.5993 123.594 42.3623C198.425 34.3273 237.467 51.1593 247.694 56.0563Z" fill="#0C313A"/>
<path d="M85.1467 96.9621C87.6227 85.9667 165.674 79.1588 168.499 88.2135C171.323 97.2682 284.456 251.532 284.456 251.532L28.6567 282.37C28.6567 282.37 82.6706 107.958 85.1467 96.9621Z" fill="url(#paint0_linear_16_4)"/>
<defs>
<linearGradient id="paint0_linear_16_4" x1="110.553" y1="0.787649" x2="151.501" y2="270.237" gradientUnits="userSpaceOnUse">
<stop stop-color="#34FF01" stop-opacity="0.2"/>
<stop offset="1" stop-color="#D9D9D9" stop-opacity="0"/>
</linearGradient>
</defs>
</svg>
