<svg width="649" height="303" viewBox="0 0 649 303" fill="none" xmlns="http://www.w3.org/2000/svg">
<path d="M0.982422 20.344L546.676 276.277C550.5 278.491 554.523 280.316 558.687 281.726C593.861 293.614 631.628 273.769 643.042 237.394C654.461 201.023 635.201 161.903 600.027 150.014C595.862 148.6 591.574 147.613 587.224 147.068L0.982422 20.344Z" fill="#F78C1E"/>
<g filter="url(#filter0_f_30_228)">
<path d="M71.9956 44.3459L550.504 268.543C553.782 270.446 557.292 272.051 560.996 273.308C591.728 283.692 624.72 266.353 634.696 234.581C644.666 202.799 627.842 168.615 597.115 158.23C593.477 156.996 589.731 156.136 585.931 155.661L71.9956 44.3459Z" fill="#FCB414"/>
</g>
<g filter="url(#filter1_f_30_228)">
<path d="M198.167 87.0024L559.601 256.625C565.335 259.949 571.707 261.917 578.258 262.39C584.81 262.862 591.378 261.826 597.49 259.357C603.603 256.887 609.107 253.046 613.609 248.108C618.11 243.17 621.495 237.259 623.522 230.799C625.55 224.34 626.169 217.494 625.334 210.751C624.499 204.009 622.231 197.539 618.693 191.807C615.155 186.074 610.435 181.222 604.872 177.598C599.31 173.975 593.043 171.671 586.522 170.852L198.167 87.0024Z" fill="#FED66E"/>
</g>
<path d="M512.059 208.533C516.57 195.271 531.058 172.652 558.53 158.747C570.847 152.513 588.245 161.231 601.326 165.589C614.407 169.947 617.181 181.234 626.323 199.126C632.689 211.584 630.946 231.292 626.527 244.674C622.109 258.056 612.29 257.129 599.928 263.458C587.566 269.786 588.36 279.876 575.202 275.492C562.044 271.109 528.715 256.585 522.368 244.024C521.042 223.925 507.926 222.01 512.059 208.533Z" fill="white"/>
<rect x="536.329" y="183.905" width="73.7208" height="58.7824" fill="#FCB61A"/>
<path d="M535.164 182.336L610.049 182.336V245.727L535.164 242.924L535.164 182.336ZM542.358 231.462C543.467 233.766 545.298 235.704 547.611 237.019C549.923 238.335 552.609 238.967 555.315 238.832C557.064 239.007 558.834 238.813 560.492 238.264C562.15 237.715 563.654 236.825 564.894 235.661C566.133 234.496 567.076 233.087 567.652 231.537C568.227 229.987 568.422 228.336 568.221 226.706V199.411H559.549V226.706C559.549 230.796 557.763 231.842 554.958 231.842C552.152 231.842 550.775 229.94 549.398 227.705L542.358 231.462ZM572.965 230.606C574.462 233.247 576.747 235.429 579.543 236.888C582.339 238.348 585.529 239.023 588.727 238.832C596.889 238.832 603.01 234.885 603.01 227.61C603.01 220.334 598.878 218.099 591.533 214.961L589.39 214.105C585.666 212.631 584.289 211.632 584.289 209.35C584.294 208.862 584.407 208.381 584.622 207.937C584.837 207.492 585.148 207.094 585.537 206.768C585.925 206.441 586.382 206.194 586.879 206.041C587.375 205.888 587.9 205.832 588.421 205.878C589.615 205.866 590.786 206.191 591.778 206.811C592.77 207.431 593.538 208.316 593.981 209.35L600.663 205.213C599.507 203.161 597.731 201.469 595.556 200.345C593.381 199.221 590.901 198.715 588.421 198.888C586.828 198.743 585.22 198.908 583.7 199.374C582.18 199.84 580.78 200.595 579.59 201.593C578.4 202.59 577.446 203.808 576.788 205.168C576.13 206.528 575.784 208.001 575.77 209.492C575.77 216.055 579.902 219.003 585.972 221.618L588.115 222.474C592.094 224.091 594.44 225.09 594.44 227.848C594.44 230.606 592.145 231.795 588.574 231.795C586.818 231.829 585.087 231.401 583.58 230.56C582.073 229.719 580.851 228.499 580.055 227.039L572.965 230.606Z" fill="white"/>
<path d="M494.107 164.852H516.03V187.011H494.107V164.852ZM507.151 183.146C507.509 183.829 508.054 184.394 508.722 184.772C509.39 185.15 510.151 185.325 510.915 185.275C512.863 185.275 514.325 184.253 514.325 182.37C514.325 180.486 513.338 179.908 511.585 179.095L511.073 178.874C510.184 178.492 509.855 178.233 509.855 177.643C509.856 177.516 509.883 177.392 509.935 177.277C509.986 177.162 510.06 177.059 510.153 176.974C510.246 176.89 510.355 176.825 510.473 176.786C510.592 176.746 510.717 176.732 510.842 176.744C511.127 176.741 511.406 176.825 511.643 176.985C511.88 177.146 512.064 177.375 512.169 177.643L513.765 176.572C513.488 176.04 513.065 175.602 512.545 175.311C512.026 175.02 511.434 174.889 510.842 174.934C510.461 174.897 510.078 174.939 509.715 175.06C509.352 175.18 509.017 175.376 508.733 175.634C508.449 175.893 508.221 176.208 508.064 176.56C507.907 176.912 507.824 177.293 507.821 177.68C507.821 179.378 508.808 180.142 510.257 180.819L510.769 181.04C511.719 181.459 512.279 181.717 512.279 182.431C512.279 183.146 511.731 183.453 510.878 183.453C510.459 183.462 510.046 183.352 509.686 183.134C509.326 182.916 509.034 182.6 508.844 182.222L507.163 183.207M506.287 175.008H500.197V176.855H502.024V185.78H504.155V176.855H506.287V175.008Z" fill="white"/>
<path d="M458.618 174.366H460.063V175.793H461.384V174.366H462.829V178.687H461.384V177.24H460.063V178.687H458.619V174.366H458.618ZM464.728 175.799H463.456V174.366H467.445V175.799H466.172V178.687H464.728V175.799H464.728ZM468.077 174.366H469.584L470.51 175.884L471.436 174.366H472.942V178.687H471.504V176.545L470.51 178.082H470.485L469.491 176.545V178.687H468.077V174.366ZM473.661 174.366H475.106V177.259H477.137V178.687H473.661V174.366ZM456.506 180.664L458.572 203.838L467.844 206.412L477.141 203.834L479.21 180.664L456.506 180.664ZM474.9 186.163L474.77 187.604L474.714 188.243H474.704H467.858H467.848H463.837L464.097 191.153H467.848H467.858H473.689H474.455L474.385 191.917L473.718 199.4L473.675 199.879L467.858 201.492V201.492L467.845 201.496L462.023 199.88L461.624 195.417H462.939H464.478L464.68 197.684L467.845 198.539L467.848 198.538V198.538L471.018 197.682L471.348 193.996H467.858H467.848H461.497L460.799 186.163L460.731 185.401H467.848H467.858H474.968L474.9 186.163Z" fill="white"/>
<path d="M436.408 152.927V154.016H433.622V150.641H436.408V151.835H434.816V152.927H436.408ZM439.273 151.835H440.386V150.641H437.599C437.599 150.641 437.599 151.241 437.599 151.835C437.972 152.208 438.166 152.387 438.705 152.926C438.39 152.926 437.599 152.927 437.599 152.927V154.016H440.386V152.927L439.273 151.835ZM443.222 151.835H444.335V150.641H441.549C441.549 150.641 441.549 151.241 441.549 151.835C441.921 152.208 442.116 152.387 442.655 152.926C442.34 152.926 441.549 152.927 441.549 152.927V154.016H444.335V152.927L443.222 151.835ZM448.006 155.621L446.313 173.957L438.978 175.931L431.644 173.957L429.951 155.621H448.006ZM444.595 159.349H438.972H433.25L433.523 161.563H438.972H439.278L438.972 161.691L433.722 163.877L433.896 166.041L438.972 166.058L441.692 166.066L441.518 168.952L438.972 169.669V169.667L438.951 169.673L436.492 169.052L436.343 167.26H436.335H434.054H434.046L434.344 170.719L438.972 172.087V172.085L438.98 172.087L443.583 170.744L444.18 163.877H438.972H438.959L438.972 163.871L444.371 161.563L444.595 159.349Z" fill="white"/>
<defs>
<filter id="filter0_f_30_228" x="66.9956" y="39.3459" width="575.572" height="241.973" filterUnits="userSpaceOnUse" color-interpolation-filters="sRGB">
<feFlood flood-opacity="0" result="BackgroundImageFix"/>
<feBlend mode="normal" in="SourceGraphic" in2="BackgroundImageFix" result="shape"/>
<feGaussianBlur stdDeviation="2.5" result="effect1_foregroundBlur_30_228"/>
</filter>
<filter id="filter1_f_30_228" x="186.167" y="75.0024" width="451.528" height="199.499" filterUnits="userSpaceOnUse" color-interpolation-filters="sRGB">
<feFlood flood-opacity="0" result="BackgroundImageFix"/>
<feBlend mode="normal" in="SourceGraphic" in2="BackgroundImageFix" result="shape"/>
<feGaussianBlur stdDeviation="6" result="effect1_foregroundBlur_30_228"/>
</filter>
</defs>
</svg>
