<svg width="221" height="191" viewBox="0 0 221 191" fill="none" xmlns="http://www.w3.org/2000/svg">
<g filter="url(#filter0_ii_29_227)">
<path d="M143.568 118.072L167.423 84.461L220.336 122.017L196.481 155.628L143.568 118.072Z" fill="white"/>
<path d="M170.972 132.841L148.272 116.729L167.712 89.34L190.412 105.452L170.972 132.841Z" fill="#53A2D3"/>
<path d="M196.202 150.749L173.503 134.638L192.943 107.248L215.642 123.359L196.202 150.749Z" fill="#53A2D3"/>
<path d="M25.2727 34.11L49.1277 0.5L102.042 38.055L78.1867 71.665L25.2727 34.11Z" fill="white"/>
<path d="M52.6727 48.88L29.9727 32.768L49.4127 5.37799L72.1116 21.49L52.6727 48.88Z" fill="#53A2D3"/>
<path d="M77.9036 66.789L55.2036 50.677L74.6436 23.288L97.3436 39.397L77.9036 66.789Z" fill="#53A2D3"/>
<path d="M0.242676 69.376L24.0977 35.766L77.0117 73.321L53.1567 106.933L0.242676 69.376Z" fill="white"/>
<path d="M27.6409 84.145L4.94287 68.034L24.3829 40.644L47.0809 56.756L27.6409 84.145Z" fill="#53A2D3"/>
<path d="M52.8729 102.053L30.1738 85.943L49.6138 58.554L72.3129 74.666L52.8729 102.053Z" fill="#53A2D3"/>
<path d="M118.537 153.338L142.392 119.728L195.306 157.283L171.451 190.893L118.537 153.338Z" fill="white"/>
<path d="M145.932 168.105L123.233 151.995L142.673 124.606L165.372 140.718L145.932 168.105Z" fill="#53A2D3"/>
<path d="M171.172 186.015L148.472 169.904L167.912 142.515L190.612 158.625L171.172 186.015Z" fill="#53A2D3"/>
<path d="M69.5376 144.365C69.9282 143.814 70.4236 143.345 70.9954 142.986C71.5671 142.626 72.2041 142.383 72.87 142.27C73.5359 142.157 74.2175 142.176 74.876 142.326C75.5344 142.476 76.1568 142.755 76.7076 143.146C77.7831 143.95 78.5019 145.142 78.7104 146.468C78.9189 147.794 78.6006 149.149 77.8235 150.244C77.0465 151.339 75.8722 152.087 74.5514 152.327C73.2306 152.568 71.868 152.283 70.7546 151.533C69.6429 150.744 68.8901 149.545 68.6619 148.201C68.4337 146.857 68.7487 145.477 69.5376 144.365Z" fill="#BDBEC0"/>
<path d="M77.4537 128.442C78.0544 127.596 78.816 126.876 79.6948 126.324C80.5737 125.772 81.5527 125.399 82.5759 125.225C83.5991 125.051 84.6465 125.081 85.6583 125.312C86.67 125.543 87.6264 125.971 88.4727 126.572C89.319 127.173 90.0386 127.934 90.5906 128.813C91.1426 129.692 91.5161 130.671 91.6898 131.694C91.8634 132.717 91.8338 133.765 91.6027 134.777C91.3715 135.788 90.9434 136.745 90.3427 137.591C89.1152 139.264 87.2794 140.386 85.2313 140.717C83.1832 141.048 81.0871 140.561 79.3953 139.36C77.7036 138.159 76.5518 136.341 76.1885 134.299C75.8253 132.256 76.2797 130.153 77.4537 128.442Z" fill="#BDBEC0"/>
<path d="M85.2008 126.211L89.8908 129.539L77.0748 147.598L72.3848 144.268L85.2008 126.211Z" fill="#BDBEC0"/>
<path d="M109.089 141.226C106.907 144.301 105.815 145.838 104.182 146.116C102.548 146.393 101.011 145.302 97.9353 143.119L69.3379 122.822C66.2625 120.64 64.7248 119.548 64.4475 117.915C64.1702 116.281 65.2616 114.744 67.4443 111.668L104.717 59.154C106.899 56.0786 107.991 54.5409 109.624 54.2636C111.258 53.9863 112.795 55.0778 115.871 57.2606L144.468 77.5587C147.544 79.7415 149.081 80.8329 149.358 82.4664C149.636 84.0998 148.544 85.6375 146.362 88.7128L109.089 141.226Z" fill="white"/>
<path d="M136.465 128.079L124.597 119.656L126.496 116.754L138.365 125.178L136.465 128.079Z" fill="#BDBEC0"/>
<path d="M122.503 147.526L110.635 139.103L112.566 136.382L124.434 144.805L122.503 147.526Z" fill="#BDBEC0"/>
<path d="M59.0836 98.581L70.9516 107.005L68.9916 109.545L57.1216 101.122L59.0836 98.581Z" fill="#BDBEC0"/>
<path d="M72.9847 78.774L84.8527 87.197L82.9527 90.097L71.0847 81.675L72.9847 78.774Z" fill="#BDBEC0"/>
<path d="M161.492 92.812L149.624 84.39L151.554 81.669L163.422 90.093L161.492 92.812Z" fill="#BDBEC0"/>
<path d="M147.562 112.439L135.694 104.017L137.627 101.296L149.493 109.72L147.562 112.439Z" fill="#BDBEC0"/>
<path d="M84.1158 63.315L95.9838 71.739L94.0218 74.278L82.1538 65.854L84.1158 63.315Z" fill="#BDBEC0"/>
<path d="M98.0457 43.688L109.913 52.111L107.952 54.651L96.0837 46.227L98.0457 43.688Z" fill="#BDBEC0"/>
<path d="M150.21 83.4842C142.048 94.9842 126.108 97.6892 114.608 89.5272C103.108 81.3642 100.403 65.4252 108.565 53.9252C116.727 42.4262 132.667 39.7202 144.167 47.8832C155.665 56.0442 158.372 71.9832 150.21 83.4842Z" fill="white"/>
<path d="M54.9219 181.526L54.1889 182.558L25.8799 162.466L26.6119 161.434L54.9219 181.526Z" fill="#BDBEC0"/>
<path d="M26.9119 163.203L25.8799 162.471L45.9739 134.161L47.0049 134.893L26.9119 163.203Z" fill="#BDBEC0"/>
<path d="M26.3519 162.573L26.1409 161.325L60.3649 155.515L60.5778 156.764L26.3519 162.573Z" fill="#BDBEC0"/>
<path d="M75.6529 153.563C73.0569 138.265 58.5499 127.971 43.2549 130.569L52.6589 185.961C67.9539 183.365 78.2499 168.86 75.6529 153.563Z" fill="white"/>
<path d="M25.6158 158.237C26.1064 158.147 26.61 158.155 27.0974 158.261C27.5848 158.367 28.0463 158.569 28.455 158.855C28.8638 159.141 29.2116 159.505 29.4784 159.927C29.7452 160.348 29.9256 160.819 30.0091 161.31C30.0926 161.802 30.0776 162.306 29.9649 162.792C29.8523 163.278 29.6442 163.736 29.3528 164.141C29.0614 164.546 28.6924 164.889 28.2674 165.15C27.8423 165.411 27.3697 165.585 26.8768 165.662C25.8986 165.815 24.8997 165.576 24.0962 164.997C23.2926 164.419 22.7492 163.548 22.5835 162.572C22.4177 161.596 22.6429 160.593 23.2104 159.782C23.7779 158.971 24.6421 158.416 25.6158 158.237Z" fill="white"/>
</g>
<path d="M115.683 94.4661C115.683 92.449 114.034 90.8135 112 90.8135C109.966 90.8135 108.316 92.449 108.316 94.4661C108.316 96.4835 109.966 98.1189 112 98.1189C114.034 98.1189 115.683 96.4835 115.683 94.4661Z" fill="#53C1DE"/>
<path fill-rule="evenodd" clip-rule="evenodd" d="M123.963 87.6849C124.741 84.5505 125.719 78.738 122.272 76.7674C118.841 74.8054 114.377 78.565 112.019 80.8217C109.669 78.5875 105.079 74.844 101.635 76.8208C98.2053 78.7894 99.2629 84.5055 100.058 87.6596C96.8589 88.5606 91.375 90.5012 91.375 94.4661C91.375 98.4198 96.8532 100.531 100.033 101.431C99.2353 104.603 98.2307 110.237 101.664 112.201C105.121 114.178 109.697 110.524 112.076 108.242C114.449 110.512 118.87 114.19 122.302 112.221C125.744 110.245 124.847 104.51 124.052 101.338C127.135 100.436 132.625 98.3704 132.625 94.4661C132.625 90.5393 127.112 88.5829 123.963 87.6849ZM123.572 99.6567C123.05 98.0179 122.346 96.2751 121.484 94.4748C122.306 92.717 122.984 90.9967 123.491 89.3685C125.799 90.0321 130.863 91.5487 130.863 94.4661C130.863 97.4109 126.004 98.9419 123.572 99.6567ZM121.419 110.708C118.859 112.178 115.055 108.66 113.303 106.989C114.466 105.728 115.627 104.262 116.761 102.635C118.755 102.46 120.639 102.173 122.348 101.781C122.907 104.025 123.99 109.232 121.419 110.708ZM102.545 110.687C99.9845 109.223 101.155 104.196 101.742 101.859C103.431 102.23 105.302 102.497 107.301 102.657C108.442 104.25 109.637 105.714 110.842 106.996C109.354 108.423 105.117 112.158 102.545 110.687ZM93.137 94.4661C93.137 91.5103 98.1703 90.0046 100.531 89.3427C101.047 91.0076 101.725 92.7484 102.542 94.5087C101.714 96.2952 101.027 98.0636 100.506 99.7481C98.2551 99.1091 93.137 97.4237 93.137 94.4661ZM102.518 78.3331C105.089 76.8574 109.078 80.4513 110.784 82.0689C109.586 83.345 108.402 84.7977 107.27 86.381C105.33 86.5593 103.473 86.8456 101.766 87.2293C101.125 84.6854 99.9494 79.8072 102.518 78.3331ZM118.022 88.2803C119.338 88.445 120.599 88.6641 121.783 88.9321C121.427 90.0619 120.984 91.2433 120.462 92.4543C119.706 91.0312 118.894 89.6366 118.022 88.2803ZM112.02 83.3176C112.832 84.1907 113.646 85.1657 114.447 86.2235C112.823 86.1473 111.196 86.147 109.572 86.2224C110.373 85.1744 111.194 84.2009 112.02 83.3176ZM103.553 92.4531C103.04 91.2462 102.6 90.0596 102.242 88.9137C103.419 88.6525 104.674 88.4391 105.982 88.2771C105.107 89.6304 104.296 91.0245 103.553 92.4531ZM106.019 100.78C104.668 100.63 103.394 100.428 102.218 100.174C102.582 99.0077 103.031 97.7955 103.555 96.5627C104.308 98.0062 105.131 99.4137 106.019 100.78ZM112.068 105.738C111.233 104.844 110.4 103.856 109.587 102.793C111.22 102.856 112.857 102.856 114.49 102.784C113.687 103.867 112.876 104.857 112.068 105.738ZM120.479 96.5C121.031 97.7462 121.495 98.9518 121.865 100.098C120.668 100.369 119.377 100.587 118.017 100.749C118.896 99.3666 119.72 97.9504 120.479 96.5ZM115.778 100.96C113.279 101.137 110.765 101.136 108.265 100.975C106.845 98.9177 105.581 96.7542 104.489 94.5082C105.575 92.2667 106.831 90.1074 108.244 88.0535C110.745 87.866 113.262 87.8655 115.763 88.0546C117.165 90.1084 118.418 92.2621 119.529 94.4833C118.431 96.7236 117.169 98.8872 115.778 100.96ZM121.392 78.2812C123.963 79.752 122.819 84.9758 122.257 87.2474C120.545 86.8558 118.687 86.5644 116.741 86.3833C115.608 84.7829 114.433 83.3276 113.255 82.068C114.983 80.4156 118.845 76.8247 121.392 78.2812Z" fill="#53C1DE"/>
<path d="M63.5407 155.204C64.1474 155.142 64.6077 154.628 64.5867 154.011C64.5659 153.394 64.0428 152.9 63.4152 152.9H63.3733C62.7247 152.921 62.2227 153.456 62.2436 154.093C62.2646 154.402 62.3901 154.669 62.5784 154.854C61.867 156.233 60.7791 157.24 59.1473 158.084C58.0385 158.66 56.8879 158.865 55.7373 158.721C54.7958 158.598 54.0636 158.187 53.6033 157.508C52.9339 156.5 52.8711 155.41 53.436 154.32C53.8335 153.538 54.4611 152.962 54.8586 152.674C54.7749 152.407 54.6493 151.954 54.5866 151.625C51.5531 153.785 51.8669 156.706 52.7874 158.084C53.4778 159.112 54.8795 159.75 56.4276 159.75C56.846 159.75 57.2644 159.709 57.6829 159.606C60.3608 159.092 62.3901 157.528 63.5407 155.204ZM67.2228 152.654C65.6328 150.823 63.2897 149.815 60.6118 149.815H60.2771C60.0888 149.445 59.6913 149.198 59.252 149.198H59.2101C58.5616 149.219 58.0596 149.753 58.0804 150.391C58.1014 151.008 58.6243 151.502 59.252 151.502H59.2938C59.754 151.481 60.1516 151.193 60.3189 150.802H60.6955C62.2855 150.802 63.7918 151.255 65.1517 152.139C66.1977 152.818 66.9508 153.703 67.3692 154.772C67.7249 155.636 67.704 156.479 67.3274 157.199C66.7416 158.289 65.7584 158.886 64.4613 158.886C63.6244 158.886 62.8295 158.639 62.411 158.454C62.1809 158.66 61.7624 158.989 61.4695 159.194C62.3692 159.606 63.2897 159.832 64.1683 159.832C66.1767 159.832 67.6622 158.742 68.227 157.652C68.8337 156.459 68.7918 154.402 67.2228 152.654ZM56.595 155.554C56.6159 156.171 57.139 156.664 57.7666 156.664H57.8085C58.457 156.644 58.959 156.109 58.9381 155.472C58.9172 154.854 58.3942 154.361 57.7666 154.361H57.7248C57.6829 154.361 57.6201 154.361 57.5783 154.381C56.7206 152.983 56.3649 151.461 56.4905 149.815C56.5741 148.581 56.9925 147.511 57.7248 146.627C58.3314 145.866 59.503 145.496 60.298 145.475C62.5156 145.434 63.457 148.149 63.5198 149.239C63.7918 149.301 64.252 149.445 64.5659 149.548C64.3148 146.216 62.2227 144.488 60.2144 144.488C58.3314 144.488 56.595 145.825 55.9046 147.799C54.9423 150.432 55.5699 152.962 56.7414 154.957C56.6369 155.101 56.5741 155.327 56.595 155.554Z" fill="#53C1DE"/>
<defs>
<filter id="filter0_ii_29_227" x="0.242676" y="0.5" width="245.093" height="194.393" filterUnits="userSpaceOnUse" color-interpolation-filters="sRGB">
<feFlood flood-opacity="0" result="BackgroundImageFix"/>
<feBlend mode="normal" in="SourceGraphic" in2="BackgroundImageFix" result="shape"/>
<feColorMatrix in="SourceAlpha" type="matrix" values="0 0 0 0 0 0 0 0 0 0 0 0 0 0 0 0 0 0 127 0" result="hardAlpha"/>
<feOffset dx="26" dy="4"/>
<feGaussianBlur stdDeviation="12.5"/>
<feComposite in2="hardAlpha" operator="arithmetic" k2="-1" k3="1"/>
<feColorMatrix type="matrix" values="0 0 0 0 1 0 0 0 0 1 0 0 0 0 1 0 0 0 0.7 0"/>
<feBlend mode="normal" in2="shape" result="effect1_innerShadow_29_227"/>
<feColorMatrix in="SourceAlpha" type="matrix" values="0 0 0 0 0 0 0 0 0 0 0 0 0 0 0 0 0 0 127 0" result="hardAlpha"/>
<feOffset dx="9" dy="4"/>
<feGaussianBlur stdDeviation="5"/>
<feComposite in2="hardAlpha" operator="arithmetic" k2="-1" k3="1"/>
<feColorMatrix type="matrix" values="0 0 0 0 0 0 0 0 0 0 0 0 0 0 0 0 0 0 0.25 0"/>
<feBlend mode="normal" in2="effect1_innerShadow_29_227" result="effect2_innerShadow_29_227"/>
</filter>
</defs>
</svg>
