<svg width="523" height="454" viewBox="0 0 523 454" fill="none" xmlns="http://www.w3.org/2000/svg">
<g clip-path="url(#clip0_18_5)" filter="url(#filter0_ii_18_5)">
<mask id="mask0_18_5" style="mask-type:luminance" maskUnits="userSpaceOnUse" x="271" y="29" width="175" height="187">
<path d="M332.882 99.6503L341.229 169.795L271.664 182.067L316.18 215.133L385.759 202.871L377.397 132.716L332.882 99.6503ZM429.849 62.0998L445.374 192.352L405.621 199.357L385.333 29.0345L429.849 62.0998V62.0998Z" fill="white"/>
</mask>
<g mask="url(#mask0_18_5)">
<path d="M385.745 202.86L346.007 209.876L332.882 99.6503L377.397 132.716L385.745 202.86Z" fill="#39CEFD"/>
</g>
<mask id="mask1_18_5" style="mask-type:luminance" maskUnits="userSpaceOnUse" x="271" y="29" width="175" height="187">
<path d="M332.882 99.6503L341.229 169.795L271.664 182.067L316.18 215.133L385.759 202.871L377.397 132.716L332.882 99.6503ZM429.849 62.0998L445.374 192.352L405.621 199.357L385.333 29.0345L429.849 62.0998V62.0998Z" fill="white"/>
</mask>
<g mask="url(#mask1_18_5)">
<path d="M429.849 62.0998L385.333 29.0345L405.621 199.357L445.374 192.352L429.849 62.0998Z" fill="#39CEFD"/>
</g>
<mask id="mask2_18_5" style="mask-type:luminance" maskUnits="userSpaceOnUse" x="271" y="29" width="175" height="187">
<path d="M332.882 99.6503L341.229 169.795L271.664 182.067L316.18 215.133L385.759 202.871L377.397 132.716L332.882 99.6503ZM429.849 62.0998L445.374 192.352L405.621 199.357L385.333 29.0345L429.849 62.0998V62.0998Z" fill="white"/>
</mask>
<g mask="url(#mask2_18_5)">
<path d="M346.006 209.876L316.19 215.118L271.675 182.052L341.229 169.795L346.006 209.876Z" fill="#03569B"/>
</g>
<mask id="mask3_18_5" style="mask-type:luminance" maskUnits="userSpaceOnUse" x="271" y="29" width="175" height="187">
<path d="M332.882 99.6503L341.229 169.795L271.664 182.067L316.18 215.133L385.759 202.871L377.397 132.716L332.882 99.6503ZM429.849 62.0998L445.374 192.352L405.621 199.357L385.333 29.0345L429.849 62.0998V62.0998Z" fill="white"/>
</mask>
<g mask="url(#mask3_18_5)">
<path d="M321.97 173.253L341.229 169.795L346.006 209.876L321.97 173.253Z" fill="url(#paint0_linear_18_5)"/>
</g>
<mask id="mask4_18_5" style="mask-type:luminance" maskUnits="userSpaceOnUse" x="271" y="29" width="175" height="187">
<path d="M332.882 99.6503L341.229 169.795L271.664 182.067L316.18 215.133L385.759 202.871L377.397 132.716L332.882 99.6503ZM429.849 62.0998L445.374 192.352L405.621 199.357L385.333 29.0345L429.849 62.0998V62.0998Z" fill="white"/>
</mask>
<g mask="url(#mask4_18_5)">
<path d="M385.753 202.854L380.976 162.771L341.221 169.776L346 209.86L385.753 202.854Z" fill="#16B9FD"/>
</g>
<path d="M332.882 99.6503L341.229 169.795L271.664 182.067L316.18 215.133L385.759 202.871L377.397 132.716L332.882 99.6503ZM429.849 62.0998L445.374 192.352L405.621 199.357L385.333 29.0345L429.849 62.0998Z" fill="url(#paint1_radial_18_5)"/>
<path d="M20.854 137.974C55.1842 122.11 120.586 111.28 185.37 159.077C218.334 183.397 185.37 159.077 277.37 226.957C307.764 251.172 321.965 215.909 316.287 191.814C310.609 167.72 308.792 190.674 318.948 177.144C329.104 163.613 357.575 202.6 342.274 227.057C326.973 251.515 347.188 245.371 306.678 258.624C280.089 266.571 269.088 266.142 241.625 259.857C229.938 256.162 195.942 245.788 123.219 216.257C96.5938 209.037 86.0372 208.832 32.192 214.614C32.6222 212.973 31.8837 209.448 31.2967 203.282C17.2019 194.776 12.7372 189.902 10.0121 177.144C13.1916 165.762 3.66834 171.355 25.0835 163.096C38.9744 158.99 -4.29284 149.595 20.854 137.974Z" fill="#47BD71"/>
<ellipse cx="20.967" cy="12.7155" rx="20.967" ry="12.7155" transform="matrix(0.771747 0.596715 -0.692878 0.752264 242.767 194.045)" fill="#39AA61"/>
<ellipse cx="9.01495" cy="4.92197" rx="9.01495" ry="4.92197" transform="matrix(0.76067 0.611009 -0.707659 0.737874 248.253 205.784)" fill="#439658"/>
<ellipse cx="25.4731" cy="15.5525" rx="25.4731" ry="15.5525" transform="matrix(0.754361 0.618933 -0.670833 0.772592 194.556 160.351)" fill="#39AA61"/>
<ellipse cx="10.9637" cy="6.01269" rx="10.9637" ry="6.01269" transform="matrix(0.742803 0.633064 -0.686038 0.758712 201.085 175.126)" fill="#439658"/>
<ellipse cx="29.9737" cy="19.5632" rx="29.9737" ry="19.5632" transform="matrix(0.84024 0.495272 -0.540106 0.870126 129.02 132.429)" fill="#39AA61"/>
<ellipse cx="12.9054" cy="7.55961" rx="12.9054" ry="7.55961" transform="matrix(0.830098 0.511962 -0.556386 0.85984 139 148.954)" fill="#439658"/>
<ellipse cx="35.0853" cy="25.1302" rx="35.0853" ry="25.1302" transform="matrix(0.935787 0.286886 -0.432609 0.927132 50.8132 124.348)" fill="#39AA61"/>
<ellipse cx="15.0747" cy="9.72749" rx="15.0747" ry="9.72749" transform="matrix(0.928846 0.306987 -0.448425 0.919849 65.1523 140.935)" fill="#439658"/>
<path d="M291.344 251.186C268.289 258.071 242.672 236.841 205.816 220.706C171.252 205.574 133.157 198.128 112.338 198.65C69.32 199.728 39.9343 212.276 39.9343 212.276L41.605 304.025C41.605 304.025 55.1078 294.555 67.9445 287.445C80.7812 280.335 88.0202 271.344 145.609 267.838C203.198 264.332 236.172 295.673 277.834 301.227C319.496 306.781 333.64 279.258 341.494 267.838C349.348 256.419 355.022 213.931 346.905 192.583C342.83 181.863 336.927 168.688 329.992 165.327C318.025 159.527 300.552 163.565 296.514 170.98C292.476 178.395 304.664 180.009 310.572 192.583C316.48 205.157 314.4 244.301 291.344 251.186Z" fill="#4C7049"/>
<path d="M131.533 199.157C153.376 214.35 162.643 224.43 175.144 244.249C202.627 295.641 205.813 316.952 242.626 351.856C267.088 369.966 303.795 365.271 312.766 361.121C321.736 356.972 321.641 358.19 334.577 352.288C347.513 346.385 331.195 374.577 309.93 386.672C288.665 398.767 272.048 405.489 238.204 397.021C216.317 390.872 208.882 385.407 192.595 367.661C186.11 359.308 167.081 335.302 129.573 278.18C114.275 260.09 107.051 255.007 67.2249 234.449C68.2383 233.36 69.2636 230.244 71.5455 225.123C65.4894 211.864 64.5216 205.95 68.1963 194.649C75.3619 187.183 83.657 185.128 102.095 188.618C113.509 191.867 117.869 190.211 131.533 199.157Z" fill="#47BD71"/>
<ellipse cx="189.764" cy="292.522" rx="28.9329" ry="19.2221" transform="rotate(56.8733 189.764 292.522)" fill="#39AA61"/>
<ellipse cx="235.564" cy="350.584" rx="24.8065" ry="14.9037" transform="rotate(29.8245 235.564 350.584)" fill="#39AA61"/>
<ellipse cx="298.114" cy="367.993" rx="20.562" ry="10.7833" transform="rotate(-11.3298 298.114 367.993)" fill="#39AA61"/>
<ellipse cx="146.03" cy="226.545" rx="35.0504" ry="22.6188" transform="rotate(46.1827 146.03 226.545)" fill="#3EAA65"/>
<ellipse cx="149.971" cy="224.225" rx="13.854" ry="9.07941" transform="rotate(53.0428 149.971 224.225)" fill="#3F9154"/>
<ellipse cx="192.294" cy="291.353" rx="12.462" ry="7.4249" transform="rotate(57.9853 192.294 291.353)" fill="#439658"/>
<ellipse cx="236.485" cy="349.773" rx="12.0113" ry="6.80835" transform="rotate(32.1284 236.485 349.773)" fill="#439658"/>
<ellipse cx="297.874" cy="366.431" rx="8.96248" ry="4.4042" transform="rotate(-11.0777 297.874 366.431)" fill="#439658"/>
<path d="M317.646 256.656C321.261 257.022 324.591 259.329 326.121 262.554L350.073 311.175C351.573 314.213 351.35 318.011 349.411 320.748L319.373 363.912C317.393 366.792 313.71 368.267 310.225 367.797L256.587 362.277C254.763 362.073 253.018 361.389 251.534 360.295C250.05 359.201 248.881 357.738 248.147 356.057L241.11 341.384C240.641 340.369 240.007 339.382 239.969 338.24C240.919 337.933 241.857 338.462 242.774 338.674C244.742 339.293 246.761 339.55 248.817 339.765C249.37 339.771 249.762 340.186 249.961 340.666L255.958 353.183C256.388 354.075 257.472 354.046 258.312 354.133L310.983 359.545C311.609 359.648 312.208 359.344 312.52 358.811L342.269 316.062C342.722 315.523 342.751 314.765 342.382 314.162L318.603 265.945C318.486 265.639 318.278 265.374 318.008 265.185C317.737 264.996 317.417 264.892 317.09 264.887L263.639 259.426C262.955 259.296 262.236 259.565 261.901 260.186L232.151 302.934C231.754 303.408 231.696 304.075 232.018 304.621L238.353 317.501C239.577 319.872 241.553 322.101 244.208 322.833C245.381 323.138 246.613 323.08 247.739 322.669C248.865 322.257 249.831 321.511 250.508 320.531L280.089 278.044C280.482 277.383 281.451 277.284 282.029 277.781L286.984 281.229C287.647 281.666 287.687 282.7 287.158 283.272L257.39 326.027C254.75 329.828 250.285 332.852 245.405 332.223C239.434 331.39 234.304 327.122 231.44 321.935L224.541 308.212C222.823 305.118 222.995 301.137 225.005 298.284L255.043 255.119C256.03 253.724 257.38 252.623 258.953 251.931C260.525 251.238 262.263 250.98 263.986 251.182L317.646 256.656ZM308.05 294.389C313.902 297.987 319.853 302.29 323.025 308.536C325.496 313.35 324.626 319.237 321.721 323.565C321.209 324.063 320.374 323.956 319.842 323.525C318.215 322.387 316.561 321.274 314.946 320.103C314.234 319.646 314.269 318.74 314.6 318.078C315.554 315.705 315.825 312.889 314.551 310.536C312.569 306.959 309.023 304.601 305.715 302.346C303.227 300.805 300.509 299.212 297.517 299.18C295.222 299.14 293.257 300.962 292.653 303.019C292.323 304.606 293.493 306.004 294.416 307.188C299.992 313.65 307.278 318.511 312.364 325.406C314.469 328.257 315.901 331.949 314.877 335.436C313.47 340.086 309.777 344.245 304.911 345.377C300.937 346.332 296.765 345.403 292.983 343.92C288.014 341.862 283.526 338.772 279.442 335.303C275.645 331.978 272.101 327.936 270.836 322.974C269.729 318.767 270.915 314.24 273.466 310.852C273.908 310.286 274.79 310.292 275.333 310.741L280.223 314.144C280.913 314.558 281.008 315.45 280.618 316.08C279.586 318.209 278.886 320.807 279.841 323.133C281.713 327.577 286.01 330.349 289.795 333.073C293.062 335.143 296.651 337.578 300.675 337.323C302.861 337.102 304.626 335.421 305.432 333.476C306.023 331.771 304.929 330.027 303.952 328.65C298.7 321.91 290.906 317.606 285.91 310.637C283.867 307.829 282.491 304.252 283.347 300.818C284.573 295.976 288.543 291.682 293.632 290.857C298.601 289.973 303.69 291.839 308.045 294.272L308.05 294.389Z" fill="#8CC84B"/>
<path d="M365.567 253.89C360.749 256.108 354.408 266.94 349.365 281.499C345.663 291.958 344.914 295.615 343.77 308.395C342.029 327.174 340.45 335.333 336.805 346.247C328.139 372.273 311.843 389.062 287.916 396.611C267.814 402.9 250.089 401.857 228.539 393.141C204.699 383.505 190.472 368.881 172.248 334.755C161.906 315.622 156.253 306.647 146.31 294.085C129.063 272.29 108.38 255.272 83.3623 242.496C66.4921 233.801 67.5458 234.828 70.1087 229.742C72.1695 225.459 72.1129 225.003 69.3883 217.61C66.2598 209.202 65.5516 203.503 67.0595 199.242C68.4303 195.369 72.0872 190.888 75.1719 189.256C79.2089 187.088 89.8448 186.603 95.9878 188.341C98.9624 189.176 101.783 189.521 102.245 189.139C103.438 187.927 79.119 177.795 75.38 177.888C73.7213 177.955 70.3117 179.581 67.8708 181.55C56.8582 190.184 55.6724 198.154 63.0306 213.398C65.1932 217.76 66.6435 221.978 66.3008 222.946C65.9923 223.817 61.7557 226.241 56.8126 228.196C46.4645 232.488 43.128 235.448 40.6888 242.648C38.2556 249.524 39.1008 254.835 44.0013 264.088C46.2324 268.255 47.8198 272.086 47.6142 272.667C47.3743 273.345 44.3864 275.012 40.9142 276.507C32.2023 280.18 27.6513 283.799 24.1703 289.323C20.7177 295.075 21.0188 296.38 26.0172 296.732C32.2465 297.303 53.93 302.252 61.4857 304.926C80.3751 311.611 101.968 323.285 116.739 334.832C125.807 341.855 140.615 356.685 147.602 365.586C156.969 377.619 175.781 395.609 188.804 405.012C213.373 422.751 232.757 430.81 255.662 432.923C308.187 437.891 353.589 409.393 371.089 360.56C377.875 341.386 378.467 326.777 373.561 301.831C370.671 287.514 370.687 281.309 373.443 269.209C375.553 260.476 375.583 258.852 374.034 256.451C371.729 252.802 369.273 252.042 365.567 253.89Z" fill="#4C7049"/>
<path d="M229.329 349.694L230.581 347.527C230.581 347.527 241.385 350.353 243.136 346.259C246.782 344.158 371.088 376.285 241.104 356.988C240.646 354.84 239.428 352.996 237.703 351.84C234.999 350.81 232.193 350.091 229.329 349.694Z" fill="url(#paint2_linear_18_5)"/>
<path d="M239.544 353.385C242.415 360.591 247.159 366.698 253.224 370.996C259.288 375.294 266.424 377.607 273.802 377.666C293.418 377.393 302.019 367.994 304.618 367.368C306.301 366.699 308.033 366.196 309.79 365.865L257.878 354.766C257.878 354.766 242.487 349.328 239.544 353.385Z" fill="url(#paint3_linear_18_5)"/>
<path d="M239.962 348.447C239.962 348.447 256.29 332.197 277.143 338.178C283.482 339.752 289.385 342.785 294.452 347.072C299.519 351.359 303.633 356.799 306.515 363.027C306.855 363.755 307.347 364.386 307.954 364.87C308.561 365.354 309.268 365.68 310.02 365.823C307.399 366.464 274.752 358.711 270.899 357.951C255.914 354.992 242.462 350.428 239.962 348.447Z" fill="url(#paint4_linear_18_5)"/>
</g>
<defs>
<filter id="filter0_ii_18_5" x="0.723877" y="-11.5" width="525" height="487" filterUnits="userSpaceOnUse" color-interpolation-filters="sRGB">
<feFlood flood-opacity="0" result="BackgroundImageFix"/>
<feBlend mode="normal" in="SourceGraphic" in2="BackgroundImageFix" result="shape"/>
<feColorMatrix in="SourceAlpha" type="matrix" values="0 0 0 0 0 0 0 0 0 0 0 0 0 0 0 0 0 0 127 0" result="hardAlpha"/>
<feOffset dx="3" dy="26"/>
<feGaussianBlur stdDeviation="11"/>
<feComposite in2="hardAlpha" operator="arithmetic" k2="-1" k3="1"/>
<feColorMatrix type="matrix" values="0 0 0 0 0 0 0 0 0 0 0 0 0 0 0 0 0 0 0.33 0"/>
<feBlend mode="normal" in2="shape" result="effect1_innerShadow_18_5"/>
<feColorMatrix in="SourceAlpha" type="matrix" values="0 0 0 0 0 0 0 0 0 0 0 0 0 0 0 0 0 0 127 0" result="hardAlpha"/>
<feOffset dy="-12"/>
<feGaussianBlur stdDeviation="9"/>
<feComposite in2="hardAlpha" operator="arithmetic" k2="-1" k3="1"/>
<feColorMatrix type="matrix" values="0 0 0 0 1 0 0 0 0 1 0 0 0 0 1 0 0 0 0.13 0"/>
<feBlend mode="normal" in2="effect1_innerShadow_18_5" result="effect2_innerShadow_18_5"/>
</filter>
<linearGradient id="paint0_linear_18_5" x1="336.134" y1="209.593" x2="330.924" y2="180.033" gradientUnits="userSpaceOnUse">
<stop stop-color="#1A237E" stop-opacity="0.4"/>
<stop offset="1" stop-color="#1A237E" stop-opacity="0"/>
</linearGradient>
<radialGradient id="paint1_radial_18_5" cx="0" cy="0" r="1" gradientUnits="userSpaceOnUse" gradientTransform="translate(491.172 123.834) rotate(-143.396) scale(220.546 233.213)">
<stop stop-color="white" stop-opacity="0.1"/>
<stop offset="1" stop-color="white" stop-opacity="0"/>
</radialGradient>
<linearGradient id="paint2_linear_18_5" x1="272.3" y1="343.116" x2="256.519" y2="367.198" gradientUnits="userSpaceOnUse">
<stop offset="0.231" stop-color="#999875"/>
<stop offset="0.563" stop-color="#9B9977"/>
<stop offset="0.683" stop-color="#A09F7E"/>
<stop offset="0.768" stop-color="#A9A889"/>
<stop offset="0.837" stop-color="#B7B69A"/>
<stop offset="0.896" stop-color="#C9C7B0"/>
<stop offset="0.948" stop-color="#DEDDCB"/>
<stop offset="0.994" stop-color="#F8F6EB"/>
<stop offset="1" stop-color="#FBF9EF"/>
</linearGradient>
<linearGradient id="paint3_linear_18_5" x1="310.977" y1="362.416" x2="240.185" y2="356.688" gradientUnits="userSpaceOnUse">
<stop stop-color="#48A547"/>
<stop offset="1" stop-color="#3F9143"/>
</linearGradient>
<linearGradient id="paint4_linear_18_5" x1="275.431" y1="336.06" x2="279.56" y2="369.929" gradientUnits="userSpaceOnUse">
<stop stop-color="#41A247"/>
<stop offset="0.352" stop-color="#4BA74B"/>
<stop offset="0.956" stop-color="#67B554"/>
<stop offset="1" stop-color="#69B655"/>
</linearGradient>
<clipPath id="clip0_18_5">
<rect width="522" height="453" fill="white" transform="translate(0.723877 0.5)"/>
</clipPath>
</defs>
</svg>
