<svg width="284" height="282" viewBox="0 0 284 282" fill="none" xmlns="http://www.w3.org/2000/svg">
<path d="M100.009 20.7702C98.4661 20.9551 97.3776 22.2623 97.5524 23.7202L98.8596 34.6246C99.0344 36.0824 100.401 37.0953 101.944 36.9103C103.487 36.7254 104.575 35.4182 104.4 33.9603L103.093 23.0559C102.918 21.5981 101.552 20.5852 100.009 20.7702ZM132.32 16.8967C130.777 17.0816 129.689 18.3888 129.863 19.8467L131.171 30.7511C131.345 32.2089 132.712 33.2218 134.255 33.0368C135.797 32.8519 136.886 31.5447 136.711 30.0868L135.404 19.1824C135.229 17.7246 133.863 16.7117 132.32 16.8967Z" fill="#A4C639"/>
<path d="M113.04 31.8306C111.497 32.0156 110.409 33.3227 110.584 34.7806L111.891 45.685C112.066 47.1428 113.432 48.1557 114.975 47.9707C116.518 47.7858 117.606 46.4786 117.432 45.0208L116.124 34.1163C115.95 32.6585 114.583 31.6457 113.04 31.8306ZM122.272 30.7239C120.729 30.9088 119.641 32.216 119.815 33.6739L121.123 44.5783C121.297 46.0361 122.664 47.049 124.207 46.864C125.749 46.6791 126.838 45.3719 126.663 43.9141L125.356 33.0096C125.181 31.5518 123.815 30.5389 122.272 30.7239Z" fill="#A4C639"/>
<path d="M106.847 6.01421C106.781 6.02269 106.722 6.04597 106.666 6.08469C106.481 6.21185 106.442 6.43415 106.574 6.60814L108.925 9.70564C105.391 12.0019 103.276 15.8143 103.753 19.8414L128.462 16.8793C127.974 12.8534 125.017 9.64909 121.041 8.25308L122.593 4.68767C122.681 4.48736 122.59 4.28064 122.38 4.20085C122.316 4.17655 122.253 4.16786 122.188 4.17512C122.047 4.19064 121.922 4.27277 121.863 4.40925L120.29 8.0138C118.591 7.5298 116.731 7.36678 114.817 7.59626C112.903 7.82575 111.134 8.4237 109.598 9.29547L107.218 6.16493C107.128 6.04639 106.987 5.99613 106.847 6.01421ZM103.864 20.7635L105.893 37.6853C106.08 39.2489 107.563 40.348 109.218 40.1496L127.953 37.9036C129.607 37.7053 130.788 36.2868 130.601 34.7232L128.572 17.8014L103.864 20.7635Z" fill="#A4C639"/>
<path d="M109.66 12.822C109.096 12.8896 108.682 13.3867 108.746 13.9197C108.81 14.4527 109.329 14.8379 109.893 14.7703C110.457 14.7027 110.871 14.2056 110.808 13.6726C110.744 13.1396 110.224 12.7543 109.66 12.822ZM121.064 11.4549C120.5 11.5225 120.086 12.0196 120.15 12.5526C120.213 13.0856 120.733 13.4708 121.297 13.4032C121.861 13.3356 122.275 12.8384 122.211 12.3054C122.148 11.7724 121.628 11.3872 121.064 11.4549Z" fill="white"/>
<path d="M81.8449 42.1443L81.8449 42.1443C79.6649 21.8435 94.3545 3.62038 114.655 1.44034C134.956 -0.739687 153.18 13.9499 155.36 34.2508C157.539 54.5517 142.85 72.7757 122.549 74.9558C102.249 77.1348 84.0239 62.4451 81.8449 42.1443Z" fill="#81C6C6" fill-opacity="0.51" stroke="white" stroke-width="2"/>
<path d="M246.674 57.4374C247.895 68.8094 207.361 90.7204 127.146 99.3334C57.7508 106.784 2.68977 95.3404 1.44677 83.7684C-0.256229 67.9004 53.2578 49.1434 120.976 41.8724C188.694 34.6014 244.97 41.5694 246.674 57.4374Z" fill="#072228"/>
<path d="M6.72388 89.2364C10.7879 86.1234 15.0419 83.2574 19.4309 80.6074C23.8589 78.0284 28.3569 75.5474 33.0119 73.3874C42.3009 69.0204 51.9559 65.4565 61.7779 62.4835C71.5979 59.4835 81.6229 57.2154 91.6959 55.2784C101.78 53.3704 111.95 51.9914 122.136 50.7984C132.349 49.8174 142.588 49.0744 152.849 48.8814C163.105 48.7184 173.377 48.8584 183.608 49.6724C193.836 50.4754 204.029 51.8054 214.084 53.8534C216.584 54.4324 219.092 54.9754 221.573 55.6204C224.045 56.3104 226.534 56.9294 228.962 57.7654C231.419 58.5014 233.806 59.4524 236.197 60.3724L239.687 61.9864C240.824 62.5774 241.923 63.2404 243.039 63.8624C238.578 61.3344 233.7 59.6955 228.807 58.2725C226.369 57.5115 223.871 56.9674 221.394 56.3544C218.907 55.7854 216.395 55.3185 213.894 54.8155C203.852 52.9725 193.69 51.8194 183.501 51.2064C173.308 50.6394 163.098 50.4444 152.892 50.7004C142.685 50.9514 132.503 51.7584 122.349 52.7844C112.201 53.9124 102.069 55.2255 92.0269 57.0655C81.9878 58.9038 72.0383 61.2019 62.2099 63.9524C52.3929 66.7294 42.7399 70.1134 33.4189 74.2734C28.7259 76.2854 24.1819 78.6234 19.6949 81.0634C15.2559 83.5904 10.9149 86.2964 6.72388 89.2364Z" fill="#174F50"/>
<path d="M183.017 83.6865C183.583 88.9635 164.775 99.1305 127.553 103.126C95.3529 106.584 69.8039 101.273 69.2269 95.9045C68.4359 88.5415 93.2679 79.8375 124.69 76.4635C156.113 73.0905 182.226 76.3235 183.017 83.6865Z" fill="#8FAD77"/>
<path d="M168.169 87.4594C168.49 90.4574 154.523 96.5854 127.167 99.5224C103.501 102.063 84.8659 99.4894 84.5389 96.4394C84.0889 92.2564 102.447 86.8554 125.541 84.3764C148.634 81.8964 167.72 83.2764 168.169 87.4594Z" fill="#B1C681"/>
<path d="M247.144 55.4994C239.925 46.6844 208.003 12.4424 118.844 22.0164C33.8849 31.1384 4.40088 72.7724 0.327881 82.4314C9.70888 75.9344 46.3269 50.0424 123.044 41.8054C197.875 33.7704 236.917 50.6024 247.144 55.4994Z" fill="#0C313A"/>
<path d="M182.65 136.273C182.71 135.599 182.617 134.918 182.357 134.395L173.336 116.222C173.076 115.699 172.59 115.214 172.017 114.854L157.693 135.313L182.65 136.273Z" fill="#00599C"/>
<path d="M169.877 155.473L182.028 138.117C182.378 137.617 182.591 136.948 182.65 136.273L157.693 135.313L143.369 155.774C143.942 156.134 144.604 156.369 145.213 156.393L166.385 157.206C167.605 157.253 169.177 156.473 169.877 155.473Z" fill="#004482"/>
<path d="M172.017 114.854C171.444 114.493 170.783 114.259 170.173 114.235L149.001 113.42C147.781 113.373 146.209 114.154 145.509 115.154L133.358 132.511C132.658 133.511 132.51 135.186 133.03 136.233L142.05 154.404C142.31 154.928 142.796 155.413 143.369 155.774L157.693 135.313L172.017 114.854Z" fill="#659AD2"/>
<path d="M163.992 148.003C156.584 151.681 147.731 148.981 144.257 141.983C140.783 134.986 143.985 126.302 151.393 122.624C156.174 120.251 161.839 120.468 166.176 123.189L161.94 129.254C160.87 128.584 159.624 128.205 158.326 128.156C157.028 128.106 155.724 128.386 154.544 128.969C152.764 129.856 151.389 131.372 150.72 133.187C150.051 135.001 150.143 136.965 150.976 138.648C151.812 140.33 153.321 141.591 155.171 142.156C157.021 142.72 159.061 142.542 160.844 141.66C162.022 141.072 163.034 140.203 163.778 139.138C164.523 138.074 164.975 136.853 165.088 135.595L172.479 135.886C172.251 138.399 171.348 140.84 169.859 142.965C168.369 145.091 166.347 146.829 163.992 148.003Z" fill="white"/>
<path d="M170.779 127.939L169.284 128.681L168.584 127.27L167.091 128.011L167.792 129.422L166.299 130.163L166.999 131.573L168.491 130.832L169.191 132.242L170.684 131.501L169.984 130.091L171.478 129.349L170.779 127.939ZM176.377 125.16L174.884 125.901L174.184 124.49L172.69 125.232L173.39 126.643L171.898 127.384L172.598 128.794L174.09 128.053L174.79 129.462L176.283 128.721L175.583 127.312L177.075 126.571L176.377 125.16Z" fill="white"/>
<path d="M125.625 189.377C125.815 188.47 125.789 187.628 125.538 186.857C125.293 186.1 124.831 185.411 124.145 184.798C118.486 179.761 112.818 174.734 107.162 169.693C105.637 168.334 103.948 168.017 102.014 168.662C99.1375 169.622 84.7793 174.214 80.4958 175.606C78.7318 176.179 77.6747 177.401 77.2957 179.2C75.734 186.605 74.1772 194.011 72.6155 201.416C72.4288 202.303 72.4508 203.128 72.6859 203.885C72.9275 204.663 73.3942 205.369 74.0952 205.995C77.454 208.997 88.7435 218.988 90.9884 221.026C92.4981 222.398 94.172 222.788 96.116 222.159C103.325 219.827 110.539 217.512 117.75 215.184C118.644 214.894 119.356 214.436 119.891 213.822C120.41 213.224 120.764 212.478 120.95 211.591C120.95 211.591 124.068 196.783 125.625 189.377Z" fill="#A179DC"/>
<path d="M99.2107 195.339L72.6859 203.885C72.9275 204.663 73.3942 205.369 74.0953 205.995C77.454 208.997 88.7436 218.988 90.9884 221.026C92.4982 222.398 94.172 222.788 96.1161 222.159C103.325 219.827 110.539 217.512 117.75 215.184C118.644 214.894 119.356 214.436 119.891 213.822L99.2107 195.339Z" fill="#280068"/>
<path d="M125.625 189.377C125.815 188.47 125.789 187.628 125.538 186.857L99.2107 195.339L119.891 213.822C120.41 213.224 120.763 212.478 120.95 211.591C120.95 211.591 124.068 196.783 125.625 189.377Z" fill="#390091"/>
<path d="M114.215 193.216L113.683 195.745L116.231 196.282L116.763 193.753L118.038 194.021L117.505 196.55L120.053 197.087L119.787 198.351L117.239 197.815L116.706 200.344L119.254 200.88L118.988 202.145L116.44 201.608L115.908 204.137L114.634 203.869L115.166 201.34L112.618 200.803L112.086 203.332L110.811 203.064L111.344 200.535L108.796 199.999L109.062 198.734L111.61 199.271L112.143 196.742L109.595 196.205L109.861 194.941L112.409 195.477L112.941 192.948L114.215 193.216ZM115.965 197.546L113.417 197.01L112.884 199.539L115.432 200.075L115.965 197.546Z" fill="white"/>
<path d="M103.002 177.591C109.648 178.99 114.696 183.795 116.683 189.774L116.664 189.716L107.903 192.539C106.908 189.625 104.451 187.283 101.219 186.565L101.117 186.543C96.1761 185.503 91.3335 188.635 90.301 193.539C89.9634 195.142 90.0777 196.736 90.5534 198.192C91.5329 201.189 94.0524 203.602 97.3778 204.302C100.724 205.006 104.023 203.795 106.126 201.417L106.075 201.474L112.938 207.608C108.752 212.241 102.277 214.607 95.6933 213.295L95.493 213.254C88.8258 211.85 83.7655 207.021 81.7924 201.015C80.8291 198.083 80.6011 194.871 81.2813 191.64C83.3547 181.792 93.0791 175.502 103.002 177.591Z" fill="white"/>
<g clip-path="url(#clip0_29_225)">
<path d="M191.365 175.621C209.151 171.86 204.538 162.778 204.538 162.778C201.588 172.998 188.089 170.161 181.967 175.504C177.79 179.151 180.011 184.754 184.443 192.486C184.328 191.129 183.887 189.675 183.441 188.204C181.92 183.185 180.335 177.956 191.365 175.621Z" fill="#E76F00"/>
<path d="M185.817 195.474C185.817 195.474 191.214 194.23 189.249 189.583C182.594 173.822 208.183 178.401 208.183 178.401C191.341 178.577 192.008 183.055 193.824 188.907C195.764 195.18 185.817 195.474 185.817 195.474Z" fill="#E76F00"/>
<path d="M194.515 209.349C209.769 208.86 206.086 200.869 201.621 199.911C200.526 199.676 200.007 199.648 200.007 199.648C200.007 199.648 200.595 199.292 201.408 199.367C210.658 200.248 212.946 212.691 194.137 209.533C194.137 209.533 194.399 209.462 194.515 209.349Z" fill="#5382A1"/>
<path d="M170.698 191.046C163.016 186.811 176.547 189.374 176.547 189.374C176.547 189.374 171.815 187.105 164.834 187.144C156.578 187.193 180.519 198.573 194.374 200.897C196.01 200.662 198.107 200.736 198.107 200.736C198.107 200.736 192.592 199.407 187.272 197.665C180.764 195.529 173.941 192.835 170.698 191.046Z" fill="#5382A1"/>
<path d="M171.505 197.816C167.173 195.572 170.887 194.9 170.887 194.9C157.888 193.458 174.447 204.659 192.384 207.227C190.872 205.993 190.167 204.582 190.167 204.582C181.681 202.643 177.107 200.718 171.505 197.816Z" fill="#5382A1"/>
<path d="M171.018 204.584C166.708 202.297 169.872 202.057 169.872 202.057C158.268 200.27 173.097 212.491 188.58 213.037C186.68 211.395 185.453 209.896 185.453 209.896C179.054 208.415 176.241 207.351 171.018 204.584Z" fill="#5382A1"/>
<path d="M197.896 219.151C197.896 219.151 199.273 221.327 194.754 220.721C186.161 219.565 161.369 210.113 155.601 204.759C153.527 202.835 158.646 203.444 160.201 203.769C161.825 204.106 162.665 204.512 162.665 204.512C160.618 201.739 143.716 200.538 153.192 206.065C179.034 221.14 203.873 224.832 197.896 219.151Z" fill="#5382A1"/>
<path d="M201.011 223.95C198.492 228.811 179.062 222.083 166.973 216.328C159.087 212.573 157.927 210.795 157.91 210.769C165.183 215.034 178.121 220.573 189.381 223.19C199.362 225.508 201.011 223.95 201.011 223.95Z" fill="#5382A1"/>
</g>
<path d="M84.5969 96.4053C87.0729 85.4098 165.124 78.6019 167.949 87.6566C170.773 96.7113 283.906 250.976 283.906 250.976L28.1069 281.813C28.1069 281.813 82.1208 107.401 84.5969 96.4053Z" fill="url(#paint0_linear_29_225)"/>
<path d="M111.89 144.689L98.3826 121.276L111.434 117.764L98.8393 148.201L92.0855 136.494L118.187 129.471" stroke="#0066FF" stroke-width="4" stroke-linecap="round" stroke-linejoin="round"/>
<g clip-path="url(#clip1_29_225)">
<path d="M115.925 34.7096L116.034 35.5471L115.263 35.6479L114.962 33.3463L115.897 33.2241C116.673 33.1228 117.091 33.2989 117.15 33.7522C117.185 34.0188 117.05 34.2461 116.746 34.4342L117.709 35.3283L116.834 35.4426L116.12 34.6841L115.925 34.7096ZM115.864 34.2421L116.008 34.2232C116.277 34.188 116.4 34.0744 116.374 33.8823C116.354 33.7238 116.211 33.6619 115.947 33.6964L115.795 33.7163L115.864 34.2421Z" fill="white"/>
<path d="M118.728 35.1951L117.969 35.2944L117.668 32.9928L119.355 32.7724L119.42 33.2715L118.493 33.3926L118.55 33.8318L119.405 33.7201L119.471 34.2192L118.615 34.3309L118.728 35.1951Z" fill="white"/>
<path d="M120.124 35.0127L119.823 32.7112L120.599 32.6099L120.899 34.9115L120.124 35.0127Z" fill="white"/>
<path d="M123.784 33.3147C123.835 33.6987 123.742 34.0119 123.506 34.254C123.272 34.496 122.917 34.648 122.442 34.7101L121.518 34.8307L121.218 32.5292L122.205 32.4001C122.664 32.3403 123.029 32.3886 123.303 32.545C123.577 32.7013 123.738 32.9578 123.784 33.3147ZM122.987 33.4413C122.959 33.2303 122.887 33.0807 122.769 32.9925C122.653 32.9042 122.49 32.8738 122.279 32.9013L122.054 32.9306L122.223 34.2199L122.395 34.1975C122.629 34.1669 122.793 34.0899 122.889 33.9664C122.983 33.842 123.016 33.6669 122.987 33.4413Z" fill="white"/>
<path d="M122.319 29.8074C122.397 30.401 121.863 30.96 121.127 31.0562C120.391 31.1524 119.731 30.7492 119.654 30.1556C119.576 29.5621 120.11 29.003 120.846 28.9068C121.582 28.8107 122.242 29.2139 122.319 29.8074Z" fill="white"/>
<path d="M117.343 27.725L116.497 26.7424L113.165 27.1777C112.429 27.2739 111.895 27.833 111.972 28.4265L113.096 37.024C113.173 37.6176 113.833 38.0208 114.569 37.9246L125.231 36.5318C125.967 36.4356 126.501 35.8765 126.424 35.283L126.073 32.5962L124.665 32.2014L125.091 35.4571L114.428 36.8499L113.305 28.2524L117.343 27.725Z" fill="white"/>
<path d="M125.895 31.5099C126.259 30.8229 126.419 30.0614 126.318 29.2851C126.008 26.9109 123.369 25.2981 120.425 25.6827C119.462 25.8085 118.586 26.1323 117.853 26.5941L118.637 27.4409C119.186 27.0946 119.843 26.8517 120.565 26.7574C122.774 26.469 124.752 27.6786 124.985 29.4592C125.061 30.0414 124.941 30.6126 124.668 31.1278L125.895 31.5099Z" fill="white"/>
<path d="M124.054 30.9367C124.282 30.5074 124.382 30.0314 124.319 29.5462C124.125 28.0624 122.476 27.0544 120.636 27.2948C120.034 27.3734 119.486 27.5757 119.028 27.8643L119.812 28.7112C120.086 28.538 120.415 28.4166 120.776 28.3694C121.88 28.2252 122.869 28.83 122.986 29.7203C123.024 30.0114 122.964 30.297 122.827 30.5546L124.054 30.9367Z" fill="white"/>
</g>
<g clip-path="url(#clip2_29_225)">
<path d="M148.345 270.07C160.482 264.09 165.671 249.803 159.934 238.161C154.198 226.519 139.708 221.93 127.57 227.911C115.433 233.892 110.244 248.178 115.981 259.82C121.717 271.462 136.207 276.051 148.345 270.07Z" fill="#5C2D91"/>
<path opacity="0.1" d="M115.259 241.346C113.966 244.356 113.308 247.572 113.327 250.796C113.346 254.021 114.041 257.186 115.368 260.097C116.696 263.009 118.629 265.606 121.049 267.728C123.468 269.851 126.324 271.455 129.44 272.442C132.556 273.429 135.867 273.778 139.17 273.468C142.473 273.158 145.699 272.195 148.65 270.638C151.6 269.082 154.213 266.965 156.329 264.416C158.444 261.868 160.018 258.942 160.953 255.818L115.259 241.346Z" fill="white"/>
<path d="M124.065 263.409C123.938 263.474 123.799 263.513 123.658 263.524C123.516 263.534 123.375 263.516 123.242 263.471C123.109 263.429 122.987 263.362 122.883 263.273C122.779 263.183 122.695 263.074 122.636 262.951C122.575 262.829 122.54 262.696 122.532 262.559C122.525 262.422 122.546 262.284 122.593 262.153C122.636 262.019 122.707 261.895 122.801 261.788C122.895 261.681 123.011 261.593 123.14 261.532C123.269 261.468 123.408 261.43 123.55 261.421C123.693 261.411 123.834 261.43 123.967 261.476C124.101 261.517 124.224 261.583 124.329 261.672C124.434 261.761 124.52 261.87 124.58 261.993C124.641 262.115 124.677 262.249 124.683 262.387C124.689 262.525 124.666 262.663 124.616 262.794C124.57 262.926 124.498 263.049 124.403 263.154C124.309 263.26 124.194 263.347 124.065 263.409Z" fill="white"/>
<path d="M137.63 256.52L135.831 257.407L124.676 250.999C124.4 250.842 124.142 250.656 123.908 250.445L123.853 250.472C124.184 250.989 124.478 251.527 124.733 252.085L129.011 260.767L127.549 261.488L121.631 249.479L123.533 248.542L134.432 254.862C134.886 255.124 135.187 255.309 135.336 255.415L135.371 255.398C135.01 254.848 134.689 254.273 134.411 253.677L130.25 245.232L131.713 244.511L137.63 256.52Z" fill="white"/>
<path d="M147.534 251.64L140.879 254.919L134.961 242.91L141.307 239.783L141.934 241.055L137.085 243.444L139.052 247.436L143.571 245.209L144.194 246.474L139.675 248.701L141.727 252.864L146.891 250.319L147.534 251.64Z" fill="white"/>
<path d="M152.071 236.06L148.431 237.853L153.722 248.591L152.259 249.312L146.968 238.574L143.369 240.348L142.743 239.076L151.444 234.788L152.071 236.06Z" fill="white"/>
</g>
<defs>
<linearGradient id="paint0_linear_29_225" x1="110.003" y1="0.230765" x2="150.952" y2="269.68" gradientUnits="userSpaceOnUse">
<stop stop-color="#34FF01" stop-opacity="0.2"/>
<stop offset="1" stop-color="#D9D9D9" stop-opacity="0"/>
</linearGradient>
<clipPath id="clip0_29_225">
<rect width="73" height="64" fill="white" transform="translate(163.894 146.111) rotate(22.2977)"/>
</clipPath>
<clipPath id="clip1_29_225">
<rect width="16.1295" height="13.0059" fill="white" transform="translate(110.359 26.4512) rotate(-7.44256)"/>
</clipPath>
<clipPath id="clip2_29_225">
<rect width="49" height="47" fill="white" transform="translate(105.594 238.74) rotate(-26.2322)"/>
</clipPath>
</defs>
</svg>
